<svg xmlns="http://www.w3.org/2000/svg" width="20" height="20" viewBox="857.6 857.6 76.8 76.8"><path d="M908.8 896c0-3.533-1.25-6.55-3.75-9.05s-5.517-3.75-9.05-3.75-6.55 1.25-9.05 3.75-3.75 5.517-3.75 9.05 1.25 6.55 3.75 9.05 5.517 3.75 9.05 3.75 6.55-1.25 9.05-3.75 3.75-5.517 3.75-9.05zm25.6-5.45v11.1c0 .4-.134.783-.4 1.15-.267.366-.6.583-1 .65l-9.25 1.4c-.633 1.8-1.283 3.315-1.95 4.55 1.167 1.665 2.95 3.966 5.35 6.898.334.4.5.817.5 1.25 0 .434-.15.817-.45 1.15-.9 1.233-2.55 3.033-4.95 5.4-2.398 2.366-3.966 3.55-4.7 3.55-.398 0-.832-.15-1.3-.45l-6.898-5.4c-1.467.767-2.983 1.4-4.55 1.9-.534 4.533-1.018 7.634-1.45 9.3-.233.934-.834 1.4-1.8 1.4h-11.1c-.468 0-.876-.142-1.226-.425-.35-.284-.542-.642-.575-1.075l-1.4-9.2c-1.632-.533-3.132-1.15-4.5-1.85l-7.05 5.35c-.332.3-.75.45-1.25.45-.466 0-.882-.184-1.25-.55-4.2-3.8-6.95-6.6-8.25-8.4-.232-.333-.35-.717-.35-1.15 0-.4.134-.783.4-1.15.5-.7 1.35-1.808 2.55-3.324 1.2-1.517 2.1-2.69 2.7-3.525-.9-1.667-1.582-3.317-2.05-4.95l-9.15-1.35c-.433-.067-.783-.275-1.05-.626-.266-.35-.4-.74-.4-1.175v-11.1c0-.4.134-.784.4-1.15s.584-.584.95-.65l9.3-1.4c.468-1.534 1.118-3.067 1.95-4.6-1.332-1.9-3.116-4.2-5.35-6.9-.332-.4-.5-.8-.5-1.2 0-.334.15-.718.45-1.15.868-1.2 2.51-2.993 4.926-5.376s3.992-3.575 4.725-3.575c.434 0 .868.166 1.3.5l6.9 5.35c1.468-.768 2.984-1.4 4.55-1.9.534-4.535 1.018-7.634 1.45-9.3.234-.934.834-1.4 1.8-1.4h11.1c.468 0 .876.14 1.227.424.35.284.54.642.575 1.075l1.4 9.2c1.633.532 3.133 1.15 4.5 1.85l7.1-5.35c.3-.3.7-.45 1.2-.45.433 0 .85.166 1.25.5 4.3 3.966 7.05 6.8 8.25 8.5.232.266.35.632.35 1.1 0 .4-.134.782-.4 1.15-.5.7-1.35 1.808-2.55 3.324s-2.1 2.69-2.7 3.525c.867 1.666 1.55 3.3 2.05 4.9l9.15 1.4c.434.066.783.274 1.05.624s.398.743.398 1.176z"/></svg>