<?xml version="1.0" standalone="no"?><!DOCTYPE svg PUBLIC "-//W3C//DTD SVG 1.1//EN" "http://www.w3.org/Graphics/SVG/1.1/DTD/svg11.dtd"><svg width="12" height="12" version="1.1" xmlns="http://www.w3.org/2000/svg" xmlns:xlink="http://www.w3.org/1999/xlink" style="border-bottom-color:rgb(121, 121, 121);border-left-color:rgb(121, 121, 121);border-right-color:rgb(121, 121, 121);border-top-color:rgb(121, 121, 121);color:rgb(121, 121, 121);font-family:'Open Sans', 'helvetica Neue';font-size:12px;height:12px;line-height:12px;outline-color:rgb(121, 121, 121);text-align:right;vertical-align:middle;width:12px;-webkit-column-rule-color:rgb(121, 121, 121);perspective-origin:6px 6px;-webkit-text-emphasis-color:rgb(121, 121, 121);-webkit-text-fill-color:rgb(121, 121, 121);-webkit-text-stroke-color:rgb(121, 121, 121);transform-origin:6px 6px;">
  <path fill="#797979" fill-rule="evenodd" d="M6.577.5L5.304.005 2.627 1.02 0 0l.992 2.767-.986 2.685.998 2.76-1 2.717.613.22 3.39-3.45.563.06.726-.69s-.717-.92-.91-1.86c.193-.146.184-.14.355-.285C4.1 1.93 6.58.5 6.58.5zm-4.17 11.354l.22.12 2.68-1.05 2.62 1.04 2.644-1.03 1.02-2.717-.33-.944s-1.13 1.26-3.44.878c-.174.29-.25.37-.25.37s-1.11-.31-1.683-.89c-.573.58-.795.71-.795.71l.08.634-2.76 2.89zm6.26-4.395c1.817 0 3.29-1.53 3.29-3.4 0-1.88-1.473-3.4-3.29-3.4s-3.29 1.52-3.29 3.4c0 1.87 1.473 3.4 3.29 3.4z" style="border-bottom-color:rgb(121, 121, 121);border-left-color:rgb(121, 121, 121);border-right-color:rgb(121, 121, 121);border-top-color:rgb(121, 121, 121);color:rgb(121, 121, 121);font-family:'Open Sans', 'helvetica Neue';font-size:12px;height:auto;line-height:12px;outline-color:rgb(121, 121, 121);overflow-x:visible;overflow-y:visible;text-align:right;width:auto;-webkit-column-rule-color:rgb(121, 121, 121);perspective-origin:0px 0px;-webkit-text-emphasis-color:rgb(121, 121, 121);-webkit-text-fill-color:rgb(121, 121, 121);-webkit-text-stroke-color:rgb(121, 121, 121);transform-origin:0px 0px;fill:rgb(121, 121, 121);fill-rule:evenodd;"/>
</svg>