<?xml version="1.0" encoding="UTF-8" standalone="no"?>
<svg
   xmlns:dc="http://purl.org/dc/elements/1.1/"
   xmlns:cc="http://creativecommons.org/ns#"
   xmlns:rdf="http://www.w3.org/1999/02/22-rdf-syntax-ns#"
   xmlns:svg="http://www.w3.org/2000/svg"
   xmlns="http://www.w3.org/2000/svg"
   version="1.1"
   id="svg2383"
   height="16px"
   width="16px">
  <defs
     id="defs2385" />
  <metadata
     id="metadata2388">
    <rdf:RDF>
      <cc:Work
         rdf:about="">
        <dc:format>image/svg+xml</dc:format>
        <dc:type
           rdf:resource="http://purl.org/dc/dcmitype/StillImage" />
        <dc:title></dc:title>
      </cc:Work>
    </rdf:RDF>
  </metadata>
  <g
     id="layer1">
    <path
       id="rect2397"
       d="M 1 1 L 1 5 L 5 5 L 5 1 L 1 1 z M 6 1 L 6 5 L 10 5 L 10 1 L 6 1 z M 11 1 L 11 5 L 15 5 L 15 1 L 11 1 z M 1 6 L 1 10 L 5 10 L 5 6 L 1 6 z M 6 6 L 6 10 L 10 10 L 10 6 L 6 6 z M 11 6 L 11 10 L 15 10 L 15 6 L 11 6 z M 1 11 L 1 15 L 5 15 L 5 11 L 1 11 z M 6 11 L 6 15 L 10 15 L 10 11 L 6 11 z "
       style="fill:#ffffff;fill-opacity:1;stroke:none;stroke-width:3.77952766;stroke-linecap:round;stroke-linejoin:round;stroke-miterlimit:4;stroke-dasharray:none;stroke-opacity:1" />
  </g>
</svg>
