<?xml version="1.0" standalone="no"?>
<!DOCTYPE svg PUBLIC "-//W3C//DTD SVG 1.1//EN" "http://www.w3.org/Graphics/SVG/1.1/DTD/svg11.dtd" >
<svg xmlns="http://www.w3.org/2000/svg">
<metadata></metadata>
<defs>
<font id="pwflymetothemoonregular" horiz-adv-x="1228" >
<font-face units-per-em="2048" ascent="1638" descent="-410" />
<missing-glyph horiz-adv-x="614" />
<glyph horiz-adv-x="2048" />
<glyph horiz-adv-x="2048" />
<glyph unicode="&#xd;" horiz-adv-x="681" />
<glyph unicode=" "  horiz-adv-x="614" />
<glyph unicode="&#x09;" horiz-adv-x="614" />
<glyph unicode="&#xa0;" horiz-adv-x="614" />
<glyph unicode="!" d="M492 -137q0 12 6 24q2 2 2 7q3 13 12 22l8 8q0 2 2 2h-2l-6 19l2 8q-3 9 0 12q10 14 23 17l2 131l26 -21l-4 -84l-4 -20q29 0 29 -23v-8l-4 -10q25 -2 41 -22.5t10 -43.5q-21 -47 -66 -69l-24 -9q-23 0 -38 17.5t-15 42.5zM518 145q0 -22 23 -32q22 -18 34.5 -24 t27.5 -0.5t34 26.5q36 30 72 92q43 85 102 223l31 68q16 33 49 90l33 55q118 198 159 289q33 73 33 110q0 43 -28 73t-64 24h-2q-19 -5 -29 -25q-22 -58 -258 -539q-14 14 -37 17q0 60 -12 162q-3 24 -5 47t-3 43t-2 26q-3 37 -6 45l-2 89q-15 366 -15 493q0 12 -12 12 t-12 -12q0 -151 14 -493l2 -89q4 -49 17 -163q12 -105 12 -162v-12l-10 -7q-11 -11 -11 -20q0 -13 9.5 -28t23.5 -23l8 -4l-172 -332zM532 -47h3q2 -2 2 -8q0 -9 2 -11l6 3l4 2q4 4 10 4q8 8 8 16q0 6 -2 6q-4 4 -10 4q-10 0 -23 -16zM571 111q15 6 21 20l178 342 q78 151 175.5 350t121.5 262l2 17v4l12 -14q15 -21 15 -48q0 -18 -2 -20q-8 -33 -39 -106q-34 -70 -148 -263l-33 -55q-18 -23 -36 -59q-2 -5 -6 -12.5t-5 -10.5l-8 -12l-26 -68q-109 -251 -170 -309q-19 -19 -37 -23zM680 543q-1 7 0.5 9.5t9.5 2.5l29 -4h4l-18 -33 q-5 0 -7 2q-15 9 -18 23z" />
<glyph unicode="#" horiz-adv-x="1048" d="M154 373q0 -54 2 -58q9 -97 71 -180q61 -88 168.5 -145.5t218.5 -57.5q92 0 154 33q5 3 8 8q31 5 76 19l82 26q23 5 35 13q14 3 16 10q2 2 2 8q0 11 -16 17h-15q-2 2 -16 2l-43 -5l-18 -2h-21q-43 8 -90.5 29.5t-73.5 46.5q-112 106 -100 297q58 6 111 47l4 8 q0 6 -4 10.5t-9 4.5q-6 0 -8 -2q-40 -37 -92 -43q12 99 61 200q50 108 138.5 184t189.5 83q2 -2 6 -2q5 0 9 4t4 8l-5 8q-48 48 -172 51l-8 4q-71 0 -139 -12q0 14 -6 23q-9 19 -37 22h-2l-6 146l-4 55l-4 117l4 90l6 43l4 88l-4 45q0 10 -13 10q-12 0 -12 -12q0 -21 2 -23 t2 -22v-39l-10 -86l-4 -94l4 -117l4 -55l6 -146l-18 -6q-23 -16 -23 -43v-22l2 -3q-192 -68 -304.5 -225.5t-112.5 -359.5zM178 367q0 169 80 306.5t223 217.5q-122 -84 -191 -212.5t-69 -266.5q0 -111 51.5 -207.5t147.5 -163.5q115 -78 264 -78q-34 -6 -68 -6 q-105 0 -206 55q-101 54 -162.5 135t-67.5 168q-2 4 -2 52zM244 424q0 120 71 250q73 132 206 214.5t292 82.5q95 0 143 -25q-95 -17 -186 -96q-85 -77 -136 -180t-63 -213q-103 3 -178 100l-8 4q-14 0 -14 -12q0 -6 2 -8q83 -106 196 -109q-12 -196 109 -311 q29 -29 79.5 -52.5t96.5 -31.5h27l18 2q2 2 21 2h6l-82 -25q-68 -26 -164 -26q-37 0 -102 10q-94 21 -170 82t-120 151t-44 191zM360 418q0 -10 11 -10q10 0 10 10t-10 10q-11 0 -11 -10zM451 299q0 -10 10 -10t10 10t-10 10t-10 -10zM559 768q0 -12 12 -12h2q7 -13 19 -13 q11 0 22 11q12 4 20.5 16t8.5 23q0 30 -35 30q-49 0 -49 -55zM594 971v12q0 11 7.5 19t19.5 8q17 0 28 -11q6 -9 6 -14v-4l-39 -8q-6 9 -16 2zM598 776q0 4 2 6zM690 922q0 -11 10 -11q11 0 11 11q0 10 -11 10q-10 0 -10 -10z" />
<glyph unicode="'" d="M387 1008q0 18 21 18l6 -2q2 -2 2 0q47 6 108 49q27 21 43 37l15 33l2 8q-2 0 0 2q-8 7 -15 10l-20 4q-6 0 -10 4q-29 6 -29 25q0 15 14 35l15 18l10 13l6 10l20 26h-8q-17 3 -24 17l-6 18q0 8 2 10q-3 9 0 15q12 15 28 18v262h25v-256q14 0 24.5 -7t10.5 -19 q0 -11 -2 -13l-4 -14l79 -51q10 -10 2 -18q18 -18 21 -37q2 -2 2 -17q0 -41 -39 -86q-40 -45 -100.5 -83.5t-122.5 -57.5h-17q-28 0 -45 10q-14 6 -14 19zM438 1004h8l5 -3v5q-2 0 -2 2zM485 1016l9 2l-5 2zM559 1343l2 -2l6 -16v-4q11 0 13 -2q0 2 2 2q0 -2 2 0 q16 16 16 27v2q0 10 -14 10q-10 0 -27 -17zM600 1116l4 2q-2 0 -2 2zM610 1137l6 6l-4 2zM610 1305q3 -3 6 0h-6zM686 1235l14 -16q-2 8 -14 24v-8z" />
<glyph unicode="," horiz-adv-x="346" d="M76 -215q0 -18 22 -18q24 0 45 12l15 6q56 45 98.5 127t42.5 147q0 71 -53 86q3 12 -10 15l-37 6v2q13 13 16 33v8q0 31 -35 31l-18 1423h-25l19 -1430q-16 -6 -27 -20q-3 -6 0 -14q-2 -2 -2 -11l6 -18q-12 0 -12 -12v-4l-6 -31l-11 -62l-6 -22q-2 -2 -2 -19 q0 -30 27 -30l27 4q18 6 26 6q6 0 10 -4q0 -2 2 -2q0 -6 2 -8q3 -3 3 -35l-23 -53q-36 -68 -74 -93q0 -2 -2 -2q-4 0 -6 -2q-12 -3 -12 -16zM125 -203l8 8q0 -2 2 -2l2 -2h-4zM133 16l17 4q-4 -4 -17 -4zM143 143l2 2h2zM150 199q15 18 28 18q4 0 9.5 -3t5.5 -5l-3 -4 q0 -11 -16 -27q-4 -4 -4 -10q-2 2 -12 2v4l-6 23zM162 -170l2 4h4zM217 2q2 -2 4 0q-2 -2 -2 -8zM219 -25q0 -2 2 -2l-2 -2v4zM238 123q12 -5 24 -17l-9 4.5t-11 4.5z" />
<glyph unicode="-" d="M252 487l4 9l4 2q-2 2 -2 12v4q0 12 11.5 24t25.5 13q120 8 291 59l24 6l15 5q2 2 4 0l4 2q-21 9 -21 28q0 33 39 47v4q0 331 -24 574v2q0 12 12 12t12 -10q25 -256 25 -578v-4q26 -10 26 -39q3 -5 -2 -10l-2 -4q-4 -8 -16 -20l55 18q136 42 193 64l6 4l14 4q15 6 25 6 q17 0 30 -14t13 -33q0 -20 -17 -37l-16 -8l-156 -60l-262 -84q-112 -32 -172 -47l-61 -12q-2 -2 -23 -2l-16 4q-8 2 -25 27l-10 16q-8 8 -8 16zM281 477l6 -12l16 -21h8q17 0 19 2l61 11q81 17 170 49l164 51q52 18 125 39l6 10l-78 -20l-143 -41q-226 -61 -336 -72z M639 651q0 -10 16 -10q8 0 14.5 5.5t6.5 12.5q0 19 -12 19q-8 0 -16.5 -9t-8.5 -16v-2z" />
<glyph unicode="." horiz-adv-x="321" d="M98 86q0 -28 20 -49t42 -21q15 0 33 11h4q31 12 54 42t23 56q0 23 -18.5 40.5t-44.5 22.5l4 13v8q0 31 -35 31l-18 1423h-25l19 -1430q-16 -6 -27 -20q-3 -6 0 -14q-2 -2 -2 -11l6 -22h2l-2 -2l-10 -12q-11 -11 -14 -27q0 -3 -3 -6q-8 -13 -8 -33zM150 199q15 18 28 18 q4 0 9.5 -3t5.5 -5l-3 -4q0 -9 -10 -19l-16 -8q-2 -2 -8 -2l-4 21z" />
<glyph unicode="0" horiz-adv-x="956" d="M156 569q0 -161 90 -257.5t243 -96.5q44 0 46 2q49 5 127 35q76 6 137 70q112 112 112 329q0 111 -28 197q-31 86 -108 144.5t-181 62.5q-18 7 -45 10q-6 8 -17 16q27 12 27 29l-4 8l-4 2v4q0 27 -33 27q-12 76 -12 174q0 75 6 164l4 156q0 12 -12 12t-12 -12l-5 -154 q-6 -89 -6 -162q0 -121 15 -186q-21 -9 -21 -31q0 -14 8 -22l11 -9q-139 -47 -232 -179t-104 -294q-2 -2 -2 -39zM233 567q0 125 60 239t158 171q-70 -74 -114 -186t-44 -220q0 -189 133 -272q-92 19 -142.5 88.5t-50.5 179.5zM313 575q0 117 52.5 235t132.5 181l2 2h4 q129 -12 209 -111.5t80 -246.5q0 -142 -73 -236t-194 -104q-2 -2 -41 -2q-84 30 -128 103.5t-44 178.5zM500 1112v2q3 12 26 12v-6q-3 -9 -14 -20q-4 0 -8 4t-4 8zM664 1024q108 -29 167.5 -129t59.5 -244q0 -93 -27 -174.5t-76 -136.5q-37 -37 -69 -53q71 57 111 149 t40 197q0 125 -55 230.5t-151 160.5z" />
<glyph unicode="1" horiz-adv-x="813" d="M311 973q0 -12 6 -21q-3 -7 0 -10q19 -22 54 -22l28 4q73 21 197 114l45 33l-4 -14q-55 -179 -90 -314q-62 -221 -92 -307q-2 -2 -2 -12l4 -16q10 -23 35 -23l18 4q4 -7 10 -4q58 15 111 117q55 104 96 289.5t41 332.5q0 37 -10 95q-3 8 -8 8l-11 8l11 6l4 8q0 6 -4 10.5 t-9 4.5q-6 0 -8 -2l-8 -9q0 9 -2 11q-3 15 -25 24l-6 4q0 254 -12 346q0 11 -12 11q-13 0 -13 -13v-2q13 -96 13 -344q-8 -2 -15 -10q-14 -14 -14 -33q0 -23 16 -33l-4 -2l-104 -65l-217 -141q-19 -10 -19 -33zM373 940l217 141l72 45l-9 -24q-36 -22 -69 -47l-97 -68 q-58 -34 -94 -43zM528 410v2q58 159 95 311q64 239 88 309l10 33l24 74q3 -18 -4 -107q-9 -138 -43 -274q-32 -139 -77.5 -232t-92.5 -116zM664 1245q0 11 8 19q4 4 6 4h12q5 -2 10 -11q0 -9 -16 -22q-2 -2 -8 -2q-12 0 -12 12z" />
<glyph unicode="2" horiz-adv-x="1042" d="M98 901l2 -20q2 -14 13 -24.5t24 -10.5l25 -8q55 -13 82 67l22 53q49 79 143.5 132t168.5 45q21 -14 35 -43.5t14 -63.5q0 -24 -6 -59q-27 -123 -183 -363l-98 -145l-35 -39q-35 -41 -35 -76q0 -31 29 -41l18 -4q35 -35 72 -35q18 0 103 29q52 21 81 24q296 41 342 70 q33 17 56.5 51t23.5 64q0 10 -10 10q-7 0 -10 -6q-9 18 -31 18h-6q-264 -27 -412 -82l-57 -22q21 15 37 47q3 24 72 123l40 67l37 62q31 52 54.5 125.5t23.5 122.5q0 87 -53 164l-4 6q-53 90 -160 96l4 8q0 14 -14 14h-2v5q-3 34 -21 41q-2 2 -10 2l12 151l4 82q0 63 -8 94 q0 10 -12 10t-12 -12v-2q8 -31 8 -92l-4 -78l-12 -164h-3q-14 -11 -24 -28q-6 -9 -6 -19t6 -16l4 -4q-170 -50 -264 -172q-64 -76 -64 -154zM166 858q12 9 12 25v6q-6 51 43 115q51 65 129 109t150 44q28 0 30 -2q-51 -6 -112 -37q-112 -57 -168 -147q-10 -13 -25 -60 q-13 -30 -30 -47q-9 -6 -21 -6h-8zM346 303q37 6 39 8q48 12 170 60q149 54 391 78q6 0 8 2q-22 -29 -47 -45q-49 -31 -338 -66q-29 -3 -84 -25q-76 -28 -96 -28q-21 0 -43 16zM383 391l23 29l96 145q162 246 194 387q9 27 9 82q8 -16 8 -65q0 -25 -17 -105 q-28 -79 -61 -135l-33 -57l-43 -70q-35 -50 -37 -57l-18 -33l-17 -33q-22 -36 -43 -51q-8 -5 -2 -14l2 -2zM442 1249l2 4q2 6 13 17l4 -2q12 0 12 12h2l4 -18q0 -9 2 -11v-2l-12 2q-2 2 -14 2z" />
<glyph unicode="3" horiz-adv-x="868" d="M59 379q0 17 11 28t28 11t28 -11t11 -28q0 -67 41 -105t115 -38q91 0 175 46.5t110 112.5q14 25 14 64q0 40 -14 65q-11 8 -95 49q-77 35 -94 91q-3 8 8 12q-2 2 -2 10q0 16 17 33l6 2q2 2 6 2l4 2q8 0 10 2l11 2h12q38 3 59 12q166 51 189 131l4 41q0 52 -35 105 q-28 22 -62 22q-30 0 -79 -18q-77 -23 -91 -23q-32 0 -49 33q-12 12 -12 29l4 16q6 15 21 21q9 0 34 14q64 24 105 33q-10 10 -10 22q0 18 20 29q6 6 14 8q-10 105 -10 135l4 164l4 133q0 13 13 13q12 0 12 -13l-4 -135l-4 -162q0 -28 10 -133q15 -3 20 -16l5 -8q2 0 5 -3.5 t3 -7.5q0 -7 -17 -24l9 -2q46 -8 79 -41q2 2 7 2q4 0 18 -14q5 -10 12 -17l27 -26q55 -66 55 -150q0 -160 -207 -281l4 -4q89 -71 89 -170q0 -117 -111 -219q-121 -121 -264 -121q-106 0 -174 74l-23 23l-24 28q-52 58 -52 150zM188 176q59 -53 144 -53q70 0 150 40t141 111 q63 72 63 166q0 67 -37 113q19 -52 19 -96q0 -92 -56.5 -160t-148.5 -104q-90 -35 -168 -35q-61 0 -107 18zM418 647q18 -34 74 -55l67 -29q-35 59 -94 80q-2 -2 -6 -2h-15q-14 0 -16 2l-4 2q-4 0 -6 2zM432 1022l17 -4h6l75 24q58 22 93 19l-17 6l-31 4q-7 2 -63 -16 l-37 -15l-37 -16q-4 0 -6 -2zM563 674q16 -10 39 -39q199 120 199 262q0 53 -15 80q-7 21 -18 35q23 -71 23 -105q0 -121 -105 -180q-42 -24 -123 -53zM563 1165l4 -4q2 -2 8 -2l21 6q2 2 2 13q0 4 -6 4h-6q-8 -2 -15.5 -7.5t-7.5 -9.5zM623 1061q2 -2 6 -2z" />
<glyph unicode="4" horiz-adv-x="905" d="M150 508q9 -36 51 -45q59 -41 141 -41q54 0 186 22q-44 0 -82 15h11q18 0 172 16l65 8l-2 27q52 6 82 6q17 0 28 11t11 28t-10 27q31 -19 35 -37v-4q0 -9 -13 -15q0 -2 -41 -14q-28 -7 -41 -20l64 8q51 15 51 41q0 27 -49 61q-2 2 -6 2q-6 0 -9 -6t1 -10q-9 6 -21 6 q-39 0 -41 -2q-1 108 -27 282.5t-51 258.5q-9 41 -24 71q-10 20 -19 29v12q-3 35 -41 35h-4l-6 164l-2 104l2 84q0 13 -12 13t-12 -13l-2 -82l2 -106l6 -168q-23 -10 -23 -33q0 -14 8 -22l9 -11l-5 -16l-4 -6l-198 -348l-121 -209l-41 -68l-10 -20q-4 -4 -4 -13l-2 -4z M244 537l30 55l121 209l152 260l6 -62l-8 -4q-141 -188 -221 -456q-4 -2 -60 -2h-20zM344 543q76 262 213 434l37 -275l14 -124l-90 -13q-101 -19 -174 -22zM528 444h11q21 0 82 7q8 -76 28 -127q10 -29 39 -29q21 0 29 14q2 -2 18 -2q39 0 39 47l-2 21q-2 2 -2 18 q0 15 -2 17q-6 35 -6 51v10l-21 -2v-8q0 -13 7 -53q6 -24 6 -52q0 -17 -4.5 -22.5t-16.5 -5.5h-8q0 14 -2 16q-18 63 -27 119l-73 -12l-2 6l-84 -11zM545 1243v4q4 -4 10 -4q12 0 12 12h6q12 0 15 -10l-2 -2q-2 -2 -2 -8l-9 -4h-8q-8 0 -10 -2q-12 3 -12 14zM610 1196v4 l2 -4l23 -68q25 -75 51 -252.5t27 -285.5q-27 0 -29 -2l-12 127q-60 446 -62 481zM694 483l2 -20l29 4l16 2v4q0 17 2 19l-18 -3zM762 471l49 6l-4 23l-16 -6q-15 -3 -19 -7l-6 -2q-4 -4 -4 -14z" />
<glyph unicode="5" horiz-adv-x="968" d="M193 215q0 26 20 35l18 4l13 -2q58 -21 172 -21q181 0 284 56t103 164l-2 26q-9 78 -35 117q-9 -6 -14 2q-33 45 -101 45q-28 0 -90 -16q-81 -19 -112 -19q-66 0 -99 45q-3 7 0 13l-6 4q-8 8 -8 26l4 19l6 16l23 43q45 84 69 148l35 88l41 88q25 49 45 61l10 6 q-6 3 -6 13v6q0 14 15 26q0 2 2 2q-9 3 -9 13q0 113 -2 125l-2 102q0 24 11 178q0 10 12 10t12 -12v-2q-10 -133 -10 -176l2 -100q2 -12 2 -125q2 2 14 2q27 0 27 -33q0 -12 -2 -14v-2q4 2 88 2h90l61 -2q17 0 28 -11t11 -28v-2q2 2 7 2q10 0 10 -11q0 -47 -29 -64t-102 -15 l-43 4q-62 6 -84 6q-27 0 -37 -10l-12 -15q-11 -11 -19 -35q-46 -94 -100 -241q27 8 78 8q141 -6 231 -102q33 -36 49 -97q21 -40 21 -100q0 -41 -2 -43l-7 -62q-2 -2 -2 -12q0 -14 -2 -16q-6 -37 -26 -62q-95 -136 -303 -172q-39 -8 -90 -8q-150 0 -254 78q-6 6 -3 12t9 6 h2q-12 9 -12 29zM219 178q92 -69 225 -69q52 0 93 8q201 38 290 166q15 15 21 43q-54 -79 -168.5 -125.5t-257.5 -46.5q-118 0 -203 24zM377 653q26 -26 72 -26q31 0 108 18q49 14 109 14q22 0 26 -2q-56 29 -106 29q-20 0 -121 -16l-57 -11l-19 -4q-2 -2 -6 -2h-6zM442 745 l9 3l28 4q36 92 107 256l20 34q12 16 17 21q14 14 63 14l66 -4q32 0 36 -2l41 -4q77 0 80 51q-9 -20 -35 -20l-61 2h-90q-80 0 -84 -2l-37 -6l-4 -5l-14 -26l-39 -84l-64 -152q-6 -18 -39 -80zM588 1182l4 -2q8 0 20 6v6q0 6 -2 8q-6 0 -13 -6t-9 -12z" />
<glyph unicode="6" horiz-adv-x="956" d="M104 623q0 -3 11 -82q23 -96 96 -160t172 -78v-2q0 -10 10 -10l86 -8l64 -4q11 0 57 4q104 23 167.5 96t63.5 166q0 55 -18 109t-45 81q-47 74 -143 116.5t-213 41.5q82 108 276 117q4 2 74 2l39 -2l24 2q25 0 27 2q2 -2 12 -2q28 0 43 30q6 10 -4 13q0 2 -2 2 q-3 17 -20 28q-105 54 -213 54q-61 0 -148 -23l-8 10q-10 17 -35 17h-8l-4 248q-6 170 -6 254q0 12 -13 12q-12 0 -12 -12q0 -87 6 -256l4 -254q-32 -19 -32 -50l4 -14q-83 -44 -150 -108q-75 -71 -118.5 -160t-43.5 -180zM180 610q0 27 2 29l4 6q46 126 138 156 q-42 -50 -67.5 -114.5t-25.5 -123.5q0 -95 70 -147q-48 26 -84 78q-37 49 -37 116zM256 565q0 66 28.5 134t75.5 112l62 4q82 0 156 -27q73 -28 112 -77.5t39 -112.5q0 -59 -33 -109q-34 -52 -97.5 -83t-141.5 -31q-84 0 -152 39h2q6 0 9 7t-3 11q-57 42 -57 133zM291 872 l6 7q69 85 167 132.5t202 47.5q62 0 147 -29q-53 0 -59 2q-64 0 -68 -2q-211 -9 -299 -137q-51 -3 -84 -16zM436 1087l4 9q6 11 19 18q2 0 6 4q2 2 10 2q11 0 21 -10v-2l-9 -4q-6 0 -8 -2l-14 -6l-12 -6q-4 0 -7 -3q-7 -3 -10 0zM506 299q168 15 250 141q50 71 47 164l2 -6 q6 -27 6 -53q0 -84 -61 -153t-154 -89q-21 -6 -51 -6z" />
<glyph unicode="7" horiz-adv-x="835" d="M25.5 926q-0.5 -10 9.5 -11q46 -14 127 -14q120 0 291 60l63 34q22 15 33 17l-8 -92l-11 -125l-28 -11l-127 -57q-100 -50 -164 -59q-12 -1 -21.5 -14.5t-9.5 -26.5q0 -26 25 -35q2 0 2 -2q29 -29 69 -29q21 0 74 17q38 15 121 59q19 15 53 27q-6 -135 -6 -363 q0 -17 11 -28t28 -11q15 0 23 8q22 0 24 2q31 10 52.5 96.5t21.5 188.5l-4 53l-12 49q-3 3 -3 27q0 16 3 19l6 4l24 12q76 47 80 51q21 15 21 37q-3 30 -64 43q-7 2 -10 -6l-17 4q-12 0 -14 -2l-6 -2q-2 4 -2 51q0 13 6 51q6 34 6 47q9 98 -69 162q-7 3 -13 0q-2 2 -12 2h-6 q-8 0 -12 -4l-15 -4l-47 -16l-29 -13l-2 2l-4 13q-8 14 -24 20l4 246q2 20 2 244q0 12 -12 12q-13 0 -13 -12q0 -224 -2 -244l-4 -244q-2 0 -10 -8q-16 -16 -16 -31q0 -10 12 -22l-49 -19q-232 -79 -301 -88q-14 -2 -24.5 -12.5t-10.5 -26.5v-4l4 -12h-2q-11 0 -11.5 -10z M131 924q95 18 266 82l148 55l10 4l-4 -29l-45 -22l-62 -33q-185 -66 -313 -57zM233 592q50 12 177 65q101 52 116 52q-2 -2 -2 -23l-63 -31l-111 -55q-43 -17 -67 -20h-11q-24 0 -39 12zM432 1120q0 7 8 15q2 1 5 1t4 -1q14 -3 14 -19v-2l-2 -2l-10 -4q-19 0 -19 12z M594 291q2 2 2 10q0 345 8 436l17 4q88 28 96 33q26 14 26 37l-4 14l-2 4l27 -10q8 -5 8 -10t-6 -14l-23 -19q-22 -18 -61 -37l-25 -12q-20 -9 -20 -39l4 -33l8 -26l4 -23l4 -49q0 -43 -10 -116t-20 -103q-16 -42 -31 -45zM610 819l8 92l11 113l6 66v28q39 -39 39 -96 q0 -23 -2 -25l-6 -49q-7 -47 -7 -53l5 -57z" />
<glyph unicode="8" horiz-adv-x="935" d="M197 287q0 -67 60.5 -114.5t160.5 -59.5q67 -25 143 -25q86 0 162 31q74 31 115 85.5t41 125.5q0 42 -9 63q-6 29 -63 103q-28 36 -35 49q-8 8 -12 16l-2 6l6 13q16 16 41 34l18 13q27 32 46.5 88.5t19.5 109.5q0 38 -17 84q-14 25 -22 33q-53 121 -186 121 q-44 0 -82 -12q3 8 0 14q-5 19 -15 22v7q-22 313 -22 536q0 12 -13 12q-12 0 -12 -12q0 -205 23 -532q-9 0 -11 -2q-28 -18 -28 -62q0 -14 2 -16q-98 -56 -137 -111q-29 -43 -29 -80q0 -42 33 -86q6 -9 11.5 -16.5t10 -13.5t11 -13t9.5 -11t11.5 -12t11.5 -11t14 -13 t15.5 -14t20 -17.5t22.5 -19.5l-23 -10l-110 -60q-180 -105 -180 -243zM274 293l5 24q25 80 137 146l28 18l23 11q-55 -38 -95 -98.5t-40 -110.5q0 -34 22 -76q-45 21 -62.5 39t-17.5 47zM356 281q0 71 69.5 147t158.5 107q115 -105 135 -205q6 -24 6 -45q0 -24 -10 -41 q-17 -27 -75.5 -44.5t-131.5 -17.5l-64 4l-57 11v2q-31 39 -31 82zM418 827q0 15 14 35q35 47 127 96q-37 -27 -61.5 -68.5t-24.5 -82.5q0 -52 33 -96l2 -6q-74 65 -88 112zM494 807q0 59 47.5 109t117.5 69q29 0 31 -2q71 -12 92 -82q11 -46 11 -53q0 -62 -46.5 -118.5 t-125.5 -86.5l-15 4q-14 17 -45 39q-37 26 -52 53t-15 68zM528 1030l2 17q3 22 15 26q0 2 2 0q7 -3 10 -16v-2l-6 -11l-4 -6zM537 678l12 -8l35 -29h-2zM565 109q49 4 68 10q88 20 130 60t42 106q0 34 -8 61q-26 116 -142 229q99 41 156 113.5t59 157.5q2 -59 -16 -119 t-47 -84l-37 -31q-33 -26 -33 -45q0 -7 6 -16l13 -19l35 -49q56 -68 59 -94q8 -24 8 -59q0 -50 -24 -94q-36 -59 -109 -93t-160 -34z" />
<glyph unicode="9" horiz-adv-x="948" d="M270 469q0 -16 10.5 -26.5t24.5 -12.5h14q24 -14 70 -14h41q98 0 193 65q94 64 162.5 172t99.5 240q18 80 18 143q0 121 -63 192.5t-170 76.5q-21 6 -52 6l-34 -2q2 2 2 12q0 24 -33 33l-2 2q2 2 2 6v39q0 45 2 49v41q2 10 2 37q-2 14 -2 45q-2 10 -2 49q0 10 -12 10 q-13 0 -13 -12v-2q0 -35 2 -45q0 -31 2 -45q0 -27 -2 -37v-41q-2 -4 -2 -49v-39q0 -6 2 -8q-4 0 -6 -2l-14 -15q-6 -9 -6 -16q0 -15 24 -21h2l-4 -2q-79 -22 -131 -65q-108 -83 -108 -225q0 -90 49 -166q47 -79 119.5 -124.5t152.5 -45.5l43 4q-63 -80 -143.5 -125 t-161.5 -45q-31 0 -33 2h-4q-16 0 -26.5 -10.5t-12.5 -24.5v-4zM365 1008q0 52 25 98t71 76q20 14 51 28q-109 -82 -109 -217q0 -107 68 -190l8 -8q-51 37 -82.5 95t-31.5 118zM422 436q121 24 223 119q98 91 159.5 228.5t61.5 250.5q0 146 -88 221q47 -29 66 -63 q39 -62 39 -158q0 -56 -19 -137q-27 -115 -94 -223q-70 -109 -160.5 -173.5t-179.5 -64.5h-8zM424 993q0 82 46.5 147t125.5 91h20q33 0 60 -6q112 -38 112 -193q0 -81 -47 -205l-20 -43q-6 0 -10 -4q-54 -28 -105 -28q-36 0 -82 16l-37 47q-35 49 -49 88.5t-14 89.5z M532 1325l7 6h2q10 0 16 -6h-6q-9 -3 -19 0z" />
<glyph unicode="?" d="M315 -162q0 11 7 25q2 2 2 6q3 13 12 22l8 9q0 2 2 2h-2l-6 18l2 8q-3 10 0 13q10 13 22 16l-4 115q-12 12 -12 26l4 19l90 190l-8 4q-13 7 -23 22t-10 27t11 23l10 6v8l-2 4q0 57 -12 162q-4 37 -11 117q-3 37 -6 45l-8 209l-2 82q-8 145 -8 291q0 12 12 12t12 -12 l4 -125l4 -174l3 -66l8 -215q3 -8 6 -45q1 -6 2 -26t3 -43.5t5 -47.5q12 -102 12 -162q26 -3 39 -16q100 207 123 281q9 18 29 24h2q29 4 53 -14t35 -51l10 -9h2l37 -10l33 -14q25 -14 69 -14q66 0 109 16q36 16 55 51t19 74q0 50 -30 89t-116 103q-54 41 -75 72 q-13 13 -13 29l4 26q4 11 11 7l4 -3q7 23 28 23q25 0 64 -20v8q0 14 14 31t27 18l2 4l4 4q-18 156 -18 490q0 76 10 106q1 5 5.5 6t8.5 -2t4 -8l-2 -4q-6 -18 -6 -101q0 -331 18 -487q0 -4 -2 -6q39 -20 39 -47q0 -31 -41 -37q-2 -2 -14 -2l55 -47q80 -74 115 -158 q25 -64 25 -115l-4 -41q-13 -69 -68 -119.5t-129 -62.5q-2 -2 -35 -2q-113 0 -223 78q-12 -48 -51 -98l-35 -56q-32 -47 -49 -90l-27 -67l-14 -41q-36 -92 -78 -131q-31 -31 -53 -31q-12 0 -21 6l-4 -61l-4 -21q29 0 29 -22v-9l-4 -10q25 -2 41 -22t10 -43q-22 -49 -66 -70 l-24 -8q-23 0 -38.5 17t-15.5 42zM356 -72h2q2 -2 2 -8q0 -8 2 -10l7 2l4 2q4 4 10 4q8 8 8 16q0 7 -2 7q-4 4 -10 4q-9 0 -23 -17zM399 66l15 -5q17 3 37 23q46 43 67 104q21 49 21 62l26 67q23 52 49 95l37 55q37 58 49 98l-38 33q-33 -77 -93 -201l-53 -112l-96 -199 q-6 -14 -21 -20zM424 365q0 -9 2 -11q3 -13 18 -22q2 -2 7 -2l18 32h-4q-6 1 -16 3t-13 2h-8q-4 -1 -4 -2zM788 582q82 -43 150 -43q65 0 111.5 37.5t58.5 95.5l4 35q0 37 -18 84q-26 71 -99 136.5t-131 73.5q-15 3 -22 21l-2 -8q0 -11 8 -19q16 -22 74 -67l88 -74 q65 -65 65 -135q0 -41 -24 -82q-24 -42 -64 -58t-113 -16q-45 0 -75 15q-4 4 -11 4zM954 1053q-2 -2 2 -9q6 -6 19 -6q43 0 43 21v2q0 9 -23 22q-41 0 -41 -30z" />
<glyph unicode="A" horiz-adv-x="901" d="M127 197q0 -28 25 -37l4 -4q36 -19 53 -19q38 0 53 56l6 32l6 25q6 36 21 39q79 41 186.5 66.5t196.5 25.5q4 0 6 2q6 -14 14 -32t13 -29.5t8 -18.5q2 -5 6 -17.5t6 -16.5t6.5 -10.5t10.5 -9.5t16 -5l-8 -2q-8 -3 -8 -11q0 -6 5 -9t11 -1q76 36 90 76v10q0 8 -2 10l-6 27 q-5 21 -31 92q-90 265 -203 527l-39 90l-14 26l-6 8q-3 7 -8 7q-17 9 -37 12q2 2 2 16q-3 22 -27 37l-14 6q-10 335 -10 488q0 12 -13 12q-12 0 -12 -12q0 -148 10 -486q-34 0 -34 -14v-2q-17 -17 -17 -39q0 -28 27 -43q-7 -17 -8 -18q0 -5 -2 -7q-214 -602 -281 -837 q-2 -2 -2 -10zM186 164q14 7 17 22l51 168q270 60 383 90l16 9l17 -33l8 -19q-82 0 -189.5 -25.5t-201.5 -66.5q-22 -10 -31 -49l-8 -31l-6 -30q-6 -23 -13.5 -32t-19.5 -9q-11 0 -23 6zM281 440q16 46 79 227.5t93 268.5l28 -72q-4 -10 -10.5 -27.5t-17 -46.5t-19.5 -53 l-51 -155l-41 -129zM365 459l36 116l50 146l41 115q83 -209 108 -267l23 -49q-5 0 -7 -2q-155 -40 -251 -59zM420 1118q0 22 26 25l5 -56h-5q-26 0 -26 31zM471 1139h2q12 -6 12 -19q0 -9 -6 -18q-4 0 -6 -2q0 37 -2 39zM479 1071l19 14h6q20 0 33 -8v-2l4 -6l14 -27l39 -86 q112 -265 203 -526l28 -90l6 -29q3 -3 3 -6v-2q-9 -18 -31 -37l4 17l-2 12q-29 82 -66 158l-24 53q-56 114 -140 330l-88 223z" />
<glyph unicode="B" horiz-adv-x="1052" d="M158 475q0 15 2 17l67 176l146 372l22 54l13 24l10 25q12 39 39 90q3 8 12 14l-2 2q-31 19 -31 43q0 22 27 43q10 10 22 13q-26 82 -26 219l4 100q0 12 12 12t12 -12l-4 -98q0 -135 27 -217h6q26 0 47 -21q8 -8 12 -20q125 -31 237.5 -126t156.5 -210l14 -35l16 -39 q9 -24 9 -49q0 -64 -93 -117q-59 -30 -108 -41l-31 2q2 -2 6 -2q15 0 17 -2q51 -14 87 -67.5t36 -118.5q0 -97 -74 -135q-30 -13 -76 -19l-10 -2q-67 -31 -178 -31q-64 0 -196.5 36.5t-197.5 72.5q-12 9 -14 16q-18 12 -18 31zM242 487q53 -29 171.5 -59.5t170.5 -30.5 q143 0 172 45l-21 -6q-36 -8 -63 -8l-47 -2q-176 0 -285 47q-32 14 -45 27q-14 8 -14 24t16 56q32 73 100 178l-6 2l-10 2h-2l-2 2h-4l-6 4q-10 3 -13 12zM301 535q3 -17 16 -25q15 -15 48 -25q112 -39 264 -39q97 0 135 23q-2 50 -67 124.5t-156 129.5l-113 29l-10 2 q-9 -11 -64 -109l-39 -74q-1 -1 -2 -4t-3.5 -9.5t-4.5 -12.5zM375 838q33 10 45 10q59 0 145 -51l6 -2q73 -21 154 -21h18q43 0 68 12q24 10 27 25q-49 -14 -138 -14q-106 0 -194 30q-55 27 -55 76q0 5 16 64l39 86l59 116l-45 15q-68 -142 -145 -346zM461 1294l4 -12 q8 5 16 0q9 -6 19 -6l32 10q10 4 15 8q-2 2 -8 2q-9 0 -9 11q0 13 13 10h2q-14 14 -33 14q-18 0 -34.5 -12t-16.5 -25zM471 903q0 -67 158 -82l82 -4q88 0 131 14v13q0 84 -69 172q-75 95 -189 145l-60 -119q-53 -121 -53 -139zM537 1260q95 -21 184 -86 q90 -65 145.5 -153.5t55.5 -176.5l-4 -39q-6 -37 -33 -64l20 11q82 46 82 100q0 46 -22 82l-17 33q-43 110 -149 201t-228 122q-9 -17 -26 -26zM702 696q51 -48 62 -63q78 -96 78 -164q0 -20 -11 -46.5t-28 -43.5q22 3 37 12q61 24 61 117q0 55 -31.5 103.5t-74.5 60.5 l-33 4q-21 3 -25 14v6h-35z" />
<glyph unicode="C" horiz-adv-x="892" d="M184 436q0 -77 39 -139q39 -65 105 -103t147 -38q89 0 183 45t178 129q12 9 12 26t-11 28t-28 11q-18 0 -27 -12q-23 -23 -59 -51h-2l-45 -15l-39 -16q-47 -18 -84 -18q-89 0 -133 18q-42 18 -68 65t-26 97t30 91.5t111 104.5l39 31q72 55 94 86q14 14 14 35q0 9 -6 33 q-4 11 -12 8l-4 -2q-9 24 -37 24q-12 0 -76 -22q3 7 0 10q0 19 -15.5 39t-33.5 21l-2 4l-6 6q0 144 -22.5 419.5t-39.5 305.5q-3 8 -10 8q-6 0 -10 -5t0 -11q8 -8 20 -123q12 -108 24.5 -310t12.5 -284q0 -6 2 -8q-47 -27 -47 -58q0 -33 49 -45q2 -2 19 -2q-53 -42 -68 -57 q-79 -73 -123.5 -159.5t-44.5 -166.5zM262 434q0 30 23 107q32 84 119 164t159 92q22 3 29 26l2 -12q0 -6 -10 -23q-8 -10 -90 -81l-48 -39l-59 -52q-80 -80 -80 -161q0 -55 27 -101q26 -49 78 -70.5t141 -21.5q38 0 90 19l14 6q-99 -51 -184 -51q-87 0 -149 57t-62 141z M377 866q0 14 26 31q52 0 52 -37q1 -2 1 -4q0 -3 -3 -6q-8 -8 -25 -8l-20 4q-31 6 -31 20z" />
<glyph unicode="D" horiz-adv-x="1017" d="M289 836q0 -29 30 -41v-2q14 -472 48 -748q2 -14 12.5 -24.5t26.5 -10.5h4q4 0 6 2q11 -14 30 -14h9q75 15 145 49q2 0 2 -2q5 -8 14 -2l43 29l50 30l43 31q24 12 47 35l37 37q19 15 41 41q53 68 73.5 124t20.5 132q0 115 -68.5 206t-181.5 140q-105 39 -189 39h-12 q3 13 -4 20q-11 19 -35 33q-4 4 -14 4h-2q0 74 -8 115l-15 110q-12 147 -12 494q0 12 -12 12t-12 -12q0 -347 12 -494l14 -114l8 -92q-9 3 -14 -2q-41 -38 -41 -64q0 -23 14 -33l-65 8h-4q-17 0 -28 -9t-13 -23v-4zM397 786h27q2 -2 29 -2v-2q0 -251 22 -557l12 -73l9 -25 q9 -18 30 -27q-44 -16 -84 -24q-32 319 -45 710zM410 897q0 10 12 25q2 -2 8 -2h41q19 -16 25 -25q4 -4 0 -8q-2 0 -2 -2l-35 -4l-8 -7q-41 0 -41 23zM473 782q67 -10 117 -26q122 -54 186 -129.5t64 -163.5q0 -55 -15 -82q-25 -80 -93 -150t-165 -114q-30 0 -47 10l-4 8 q-1 2 -2.5 6t-3 8.5t-2.5 8.5l-12 69q-23 320 -23 555zM496 858q8 4 12 8h14q93 0 187 -37q108 -45 175.5 -133.5t67.5 -191.5q0 -73 -32.5 -148t-88.5 -131q87 119 87 238q0 112 -77 206t-218 156q-66 24 -127 33z" />
<glyph unicode="E" horiz-adv-x="1124" d="M287 446q0 -28 16 -40l4 -5l6 -2l13 -6l268 -121q57 -28 68 -36q9 -9 26 -9h6q28 9 31 35q23 38 23 62l-5 26q-16 42 -65 62q-68 30 -150 51l-49 14l-16 8l4 2l4 7q86 116 104 153l66 -41q65 -40 158 -90l18 -4q23 0 33 23l2 4q35 30 35 59l-4 20q-15 37 -52 58 q-37 20 -145 65q-28 9 -41 19l-10 6h-2l4 4q3 9 12 21l41 61l60 86q126 -90 237 -195q6 -6 21 -10q3 -7 12 -4q59 24 59 66q0 19 -8 32q-21 44 -106 111q-146 106 -267 156l-4 2q-10 0 -10 -15q0 -4 2 -6l-18 4q-14 0 -24.5 -11t-10.5 -28l4 -16l-8 -8l-60 -94l-6 6l-28 4 q-43 191 -43 579v125q0 13 -13 13q-12 0 -12 -13v-131q0 -24 4 -176q11 -251 41 -403q-17 -10 -20 -29v-10q0 -35 30 -47l-37 -64l-32 -57l-107 -182q0 -3 -16 -19l-17 -14q-26 -26 -26 -58zM377 455q29 29 35 41q44 69 108 182l39 -21q-24 -41 -104 -151l-9 -8 q-8 -11 -2 -21q2 -7 29 -20l49 -15q90 -24 146 -47q37 -19 55 -51l4 -18q0 -4 -10 -37l-6 8q-6 8 -82 45zM516 887v6q2 7 8 10q2 2 6 2q3 -5 11 -8l12 -4l-18 -31q-19 10 -19 25zM557 745q93 158 137 230l2 2l37 -27l-59 -88l-41 -59l-8 -10l-7 -13l-4 -6q-2 -2 -2 -8 q0 -11 13 -21q10 -10 53 -24q97 -39 141 -62q35 -19 45 -47l2 -10q0 -19 -16 -35q-3 13 -19 19l-149 86q-11 6 -52.5 30t-72.5 43zM694 1071q149 -73 258 -149q82 -60 101 -103q6 -15 6 -24l-4 -15l-2 -4q-3 15 -13 25q-168 154 -346 270z" />
<glyph unicode="F" horiz-adv-x="1083" d="M344 477q0 -28 25 -37v-2q-3 -8 8 -12l18 -2q46 0 70 43q29 51 67 172l17 49q14 62 24 78q162 -83 218 -100q2 -2 12 -2q12 0 24 8t13 18l2 4q24 21 24 47q0 12 -10 29q-15 28 -43 43l-96 43l-47 21q-28 9 -37 18l-10 6l-2 2l2 10l10 25q2 8 31 74q35 87 47 131l84 -49 q85 -53 176 -90l16 -5q24 0 33 25q4 4 4 10l2 2q12 9 12 23q0 21 -28 49q-31 37 -102 82.5t-138 71.5q-50 18 -80 18q-18 0 -20 -2q-8 0 -8 -10q0 -14 12 -11q3 3 16 3q37 0 78 -21q65 -25 131 -67t96 -78q18 -18 21 -29v-4q-5 8 -17 12q-88 40 -165 88l-170 96q-5 5 -17 5 l-18 -5q0 15 -4.5 23t-20.5 18l-12 11l-4 2q-3 88 -10 153l-5 62l-6 110q0 13 -12 13t-12 -13l10 -174l10 -172v-2l-4 -2q-18 -9 -18 -31q0 -26 14 -45.5t33 -19.5q-92 -239 -119 -320l-2 -2l-4 -12q-65 -184 -117 -369q-2 -2 -2 -10zM412 451q4 4 8 16q67 218 104 328 l31 -19l-27 -82q-44 -165 -88 -217q-24 -24 -28 -26zM551 868q56 164 113 301l28 -16q-5 -31 -49 -133q-23 -62 -31 -74q-12 -34 -12 -45q0 -15 21 -24l41 -21q112 -48 135 -61q27 -15 43 -37q6 -9 6 -19q0 -12 -8 -20q-10 17 -23 20q-71 21 -264 129zM565 1249q-1 4 -1 6 q0 7 5 9h4q13 0 31 -11q0 -13 -10 -30q-3 -6 -4 -6q-2 -1 -3 -1q-5 0 -12 7q-10 17 -10 26z" />
<glyph unicode="G" horiz-adv-x="911" d="M147 563q0 -81 35 -143q37 -66 106.5 -98.5t192.5 -32.5q174 0 260 63q91 41 117 131q8 16 8 58q0 61 -43.5 105.5t-111.5 55.5l-60 7l-137 12q-39 0 -76 -37q-6 -8 0 -14q-2 -2 -2 -13l-4 -65l-4 -68q0 -18 10 -29.5t27 -11.5q18 0 29.5 10t11.5 27l4 66l2 10 q31 -10 98.5 -20.5t104.5 -10.5q0 -13 6 -22q20 -33 20 -64q0 -49 -73.5 -80.5t-184.5 -31.5q-49 0 -51 2q-158 53 -158 204q0 48 19 107q31 84 109.5 163.5t160.5 110.5q35 9 66 11q154 15 194 47q19 16 19 32q0 9 -11 27q-3 32 -32 35l-111 10q-47 0 -79.5 -9.5 t-102.5 -41.5q0 10 -2 12q-3 18 -21 33l-2 4q-15 18 -28 21q0 273 -19 503q0 13 -12 13t-12 -13q18 -217 18 -512l-4 -4q-25 -25 -25 -65q0 -19 3.5 -26t15.5 -15q-127 -86 -199 -207t-72 -246zM227 553q0 104 60 209q58 101 159 175t213 99q2 2 23 2l104 -10h7q9 0 26 10 q0 -2 -8 -10q-20 -18 -63 -27q-62 -12 -121 -16l-72 -10q-87 -31 -168 -113.5t-113 -173.5q-20 -50 -20 -113q0 -130 106 -196q-32 10 -49 18q-84 47 -84 156zM422 1057q0 8 6 23.5t12 21.5q3 -6 11 -6q12 0 14 -2l8 -33l4 -8l-28 -19h-15q-12 3 -12 23zM489 694q15 6 31 6 q37 0 78 -8l53 -4l58 -6q135 -21 135 -143q0 -64 -33 -103q6 21 6 43q0 48 -31 105l-6 8v6q0 17 -9 28t-23 13l-76 8q-113 12 -148 27q-2 2 -14 2q-6 9 -21 18z" />
<glyph unicode="H" horiz-adv-x="919" d="M164 446q0 11 2 13q116 303 276 622h-4q-15 0 -27.5 10.5t-13.5 28.5v6q0 20 15 41l4 4q0 7 -3 68t-7 115l-5 43l-12 110l-12 138q0 12 12 12t12 -12l13 -134l12 -110l4 -47l10 -166h6q15 0 21 -14l4 -19v-16l4 -9v-10q2 2 6 2q86 0 86 -63q0 -57 -90 -180l-22 -35 l-6 -13q-3 0 -3 -2l7 -10l16 -16q47 -37 57 -43l101 -70l133 260q7 14 18 17v4q0 10 10 10q45 0 71 -18.5t26 -53.5q0 -18 -2 -20q-16 -64 -76 -144l-51 -67l-45 -62q-28 -41 -90 -186q-52 -124 -103 -188q-26 -29 -47 -29q-8 0 -19.5 5t-11.5 9v4q-12 0 -22.5 9t-11.5 22 l-3 10q0 8 7 19q41 65 161 293q-7 0 -16 6l-164 92q5 -5 2 -14l-16 -33l-15 -35q-39 -82 -51 -106q-52 -86 -96 -86h-10q-13 0 -15 2q-26 9 -26 36zM242 438q5 2 12 13q44 50 90 157l14 35q9 29 17 37q3 6 10 6l-37 19q-43 -97 -106 -267zM379 776q25 -10 217 -121l8 -6 l12 23q-44 24 -159 114q-31 28 -31 43q0 13 8 21l27 39q10 15 69 112q17 39 17 54l-2 14q-2 14 -14.5 23t-32.5 10q20 -14 20 -37l-4 -16zM420 1126q0 -9 12 -18q7 -3 10 0h2l2 41v4q-2 2 -2 10l-4 -2v-8q0 -12 -12 -12h-4zM461 236l12 -3q14 0 29 21q47 62 100 182 q60 140 92 193l45 61l52 68q59 96 71 135q2 2 2 16q0 20 -11 32.5t-28 14.5q9 -9 9 -24l-5 -19l-20 -39l-27 -53q-91 -171 -102 -194q-149 -288 -205 -377q-6 -8 -14 -14zM471 1106h2l-2 2v-2z" />
<glyph unicode="I" horiz-adv-x="743" d="M231 98q0 -22 23 -32q18 -27 43 -27q27 0 53 29q36 30 72 92q43 85 102 223l27 68q17 43 49 90l37 55q59 89 59 141q0 43 -28 73q-23 25 -52 25q-6 0 -12 -1h-2q-19 -6 -29 -25q-49 -127 -124 -281q-14 14 -37 17q0 51 -13 162q-3 24 -5 47t-3 43t-2 26q-3 37 -6 45 l-2 88q-14 342 -14 494q0 12 -13 12q-12 0 -12 -12q0 -152 14 -494l2 -88q4 -49 17 -163q12 -105 12 -162v-13l-10 -6q-10 -10 -10 -20q0 -14 9.5 -29t22.5 -22l9 -4l-172 -332zM285 63q14 6 20 21l178 342q101 191 164 354l2 17v4l13 -15q14 -20 14 -47q0 -18 -2 -20 q-9 -45 -53 -111l-37 -55q-21 -27 -37 -59l-15 -35l-26 -68q-109 -251 -170 -309q-20 -20 -37 -23zM393 501q1 3 1 5q2 2 9 2l29 -4h4l-18 -33q-4 0 -6 2q-19 12 -19 28z" />
<glyph unicode="J" horiz-adv-x="839" d="M109 295q0 -13 10 -78q-2 -2 -2 -6q58 -205 235 -205q114 0 211 80.5t139 212.5q35 104 54 233l18 107q19 105 19 201q0 27 -11 73q-6 21 -20 29l-8 4q3 6 -4 10q6 9 6 23q0 17 -15.5 28t-35.5 11q-15 0 -17 -2q-18 119 -18 430q0 169 8 196v3q0 12 -12 12q-13 0 -13 -10 q-8 -27 -8 -199q0 -121 6.5 -258.5t14.5 -188.5q-15 -15 -15 -36q0 -25 31 -41v-2q0 -7 -2 -9l-27 -188l-30 -199q-46 -221 -148 -329q-76 -76 -153 -76q-10 0 -48 10q-13 44 -20 86l-10 41q-9 49 -29 82q-14 26 -41 29l-8 -4l-12 4h-4q-13 0 -25 -10t-14 -21q-2 -4 -2 -43z M188 326q0 26 15 -4q14 -31 20 -68l10 -43l7 -37l8 -27q-61 45 -61 150q0 14 1 29zM221 72q13 -10 25 -13q53 -16 80 -16q120 0 206 100q116 122 166 369q17 80 31 203l6 47l8 47l15 92v6l-4 17q7 -3 10 -17q8 -16 8 -67q0 -102 -18 -197q-12 -49 -19 -106q-4 -22 -8.5 -52 t-7.5 -48.5t-6 -30.5q-34 -160 -113 -250q-54 -62 -120.5 -95.5t-129.5 -33.5q-78 0 -129 45zM674 967q0 11 9 19.5t19 8.5q8 0 17.5 -6t9.5 -12v-4q0 -13 -12 -19l-4 -8l-4 -2q-5 0 -7 -2l-12 4q-16 6 -16 21z" />
<glyph unicode="K" horiz-adv-x="1046" d="M193 985q-2 5 -2 10q-1 13 11 27q16 18 36 20q0 134 2 148v153q0 172 -13 312v2q0 12 13 12q12 0 12 -10q12 -132 12 -316v-153q-2 -14 -2 -152q24 -15 27 -41l-2 -10q54 -25 92 -149q12 -39 49 -191l14 -57l222 360q10 19 32 19q12 0 21 -6q2 0 2 -2l10 2q41 -18 41 -60 l-4 -31q-11 -42 -68 -124l-45 -62q-33 -40 -75 -111q-9 -15 -9 -26q0 -15 23 -31q45 -26 137 -47l82 -20q107 -33 156 -73t49 -99l-4 -39q-2 -10 -11.5 -9.5t-9.5 11.5v2q2 2 2 10q-10 -23 -30 -23q-13 0 -15 2q-73 21 -188 86l-76 41q-73 36 -147 60q9 -43 55 -131 q20 -31 38.5 -81t18.5 -75q0 -62 -67 -108q-4 -3 -7 -3q-4 0 -8 5h-6q-17 0 -29 18q-78 129 -157 408v2l-13 47l-18 59l-16 55q-22 74 -125 318q-2 2 -2 12q0 14 6 23q-12 9 -14 16zM217 993q0 -5 12 -8q10 3 23 0q3 8 10 8v4q0 13 -14 19h-4q-10 0 -18.5 -7.5t-8.5 -13.5 v-2zM274 965l2 -2q95 -230 125 -322l25 -80l2 6q-2 7 -20 76l-13 53l-8 31l-6 23l-25 100q-12 37 -35 73t-42 46zM457 446q65 -240 141 -360l6 -14q23 23 23 65q0 28 -10.5 55t-43.5 89q-30 49 -42 79.5t-17 67.5zM489 518q163 -56 228 -88l82 -43q94 -58 170 -80 q20 -6 26 -24q-3 48 -43 82q-45 39 -147 65q-17 6 -82 23q-112 27 -143 47q-31 22 -31 47l10 37q37 63 76 114q2 2 39 52q61 81 71 129l5 24q0 17 -2 22t-13 11v-8q0 -10 -6 -19z" />
<glyph unicode="L" horiz-adv-x="888" d="M344 150l31 -23q62 -41 192 -115.5t205 -111.5l12 -4q0 -5 2 -7q3 -5 8 -5q3 0 7 3q49 37 49 78q0 22 -12 43q-30 45 -78 70q-30 18 -215 100q-37 14 -60 29l-18 10q-4 4 -4 6l2 10l10 25l43 72l131 207q119 192 119 290q0 54 -37 78q-2 2 -8 2v2l4 2q15 9 18 27v18 q-2 2 -2 7q0 10 -12 10v4q0 13 -7.5 23t-18.5 10l12 204q8 65 8 218q0 126 -18 237q0 10 -13 10q-12 0 -12 -12v-2q18 -95 18 -203q0 -173 -8 -252l-12 -206q-23 -16 -23 -43q0 -16 13 -35q-16 -10 -19 -25q-61 -201 -260 -524l-53 -76l-29 -43l-10 -16l-4 -6q-2 -2 -2 -9 q-2 -13 -2 -17q0 -30 53 -60zM379 221l24 35q25 33 54 80q215 362 268 545l2 2q21 -21 21 -58q0 -24 -13 -65q-23 -85 -59 -142l-174 -276l-45 -76q-15 -27 -15 -43q0 -15 33 -35l62 -30l163 -72q97 -51 119 -88q10 -17 10 -33v-12l-4 -8q-3 14 -20 24q-73 37 -199 110 t-188 114q-17 10 -39 28zM682 963v4q3 -6 10 -6q13 0 13 12v12h2l2 -6q0 -9 -7 -23q-3 -13 9 -16q5 -3 10 2v-2q0 -7 -11 -7q-4 0 -8 1l-12 6q-8 13 -8 23z" />
<glyph unicode="M" horiz-adv-x="1236" d="M150 360q0 -21 16 -34l14 -7q-3 -7 6 -10l11 -6l12 -8q9 -6 20 -6l13 2q31 6 73 69q49 74 107 177l92 170q13 19 26 39.5t19.5 31t9.5 13.5l9 -132l6 -49q4 -18 14 -39q-4 0 -6 -2q-8 -5 -2 -14q21 -27 63 -27q31 0 33 2q111 15 340 156q-75 -143 -276 -536h-2 q-11 0 -11 -11q0 -20 -2 -22v-13q0 -10 2 -12l6 -18l11 -11q16 -8 39 -8q26 0 61 27q23 17 80 111q135 230 207 399q51 107 51 156q0 32 -27 79q-3 10 -12 7q-9 12 -31 12q-17 0 -35 -6l-61 -23q-56 -21 -172 -74l-149 -69q0 143 -13 239q-15 91 -59 123q-2 2 -6 2 q-6 0 -9.5 -4.5t-1.5 -9.5l-6 4l8 10l11 21q2 2 2 16q0 21 -15 33l-4 2q0 333 23 535v2q0 12 -12 12q-13 0 -13 -10q-22 -203 -22 -531q-29 -3 -41 -31l-4 -20q0 -29 26 -43l-10 -8l-16 -21l-45 -63l-123 -197l-103 -168l-69 -112q-43 -71 -47 -74q-6 -9 -6 -21zM203 322 q6 2 18 14l221 358l121 195l2 2l2 -72q-23 -23 -45 -59l-53 -94l-66 -119q-50 -89 -94 -160q-23 -37 -41 -53q-14 -20 -30 -23h-7q-16 0 -24 8zM567 1065q0 10 7.5 18.5t15.5 8.5h2q2 -2 6 -2h2q6 -6 6 -17v-6h-2q0 -20 -20 -20h-4q-13 7 -13 18zM612 561l19 -4h4l4 2h4l2 2 l6 2l15 6l55 27l166 78l168 71l6 3l-14 -25q-123 -78 -230 -129q-77 -33 -133 -43q-2 -2 -29 -2q-28 0 -43 12zM627 1014q35 -35 47 -119q10 -120 10 -229l-29 -15v15l-14 268q-2 2 -2 24q0 21 -2 23t-2 16q-2 2 -2 7l-2 4zM760 92l4 -2l18 -4q23 0 33 23q220 438 315 604 l5 6l16 29q9 18 12 30q0 2 2 2q6 -12 6 -30l-2 -21q-6 -54 -89 -227t-162 -297q-48 -79 -76 -107q-20 -20 -47 -20l-33 4zM1114 766q2 2 6 2l4 -2h-10z" />
<glyph unicode="N" horiz-adv-x="1169" d="M84 291q0 -10 6 -19h-2q-5 -8 0 -16q33 -33 70 -33q69 0 125 103l30 57l25 51q48 81 117 168.5t118 128.5l-24 -129q-5 -38 -19 -94l-8 -47l-26 -133l-15 -74q-3 -20 -12 -55l-4 -9q-20 -26 -23 -65l4 -14q36 -45 86 -45q30 0 43 8q31 19 95 78l157 155q213 213 244 260 l45 86l2 4v2q12 9 12 27q0 17 -10.5 28t-27.5 11q-18 0 -27 -12q-103 -99 -313 -289l-93 -82l35 270q17 180 17 201q0 59 -13 92q-8 18 -26 29l-21 6q13 20 13 35q0 23 -21 41l-12 6q0 82 8 123l6 67l4 103q0 49 -2 53l-2 150q0 100 8 127v2q0 12 -12 12t-12 -10 q-11 -86 -11 -113q0 -62 3 -68l4 -151q0 -35 -7 -103l-4 -67l-8 -117q-2 2 -14 2q-11 0 -14 -6q-17 -24 -17 -41q0 -18 11.5 -33t25.5 -20l-6 -6q-8 -8 -14 -23l-7 -12v-2q-15 -18 -53 -53q-40 -37 -59 -60l-74 -84l-82 -98l-143 -188l-68 -91q-8 -8 -8 -24zM127 254 q20 4 27 16l67 88l76 101l145 180l74 84l55 55l11 8l-4 -24q-49 -37 -124.5 -130t-131.5 -186q-17 -29 -27 -53l-31 -57q-35 -66 -76 -84q-15 -6 -28 -6q-20 0 -33 8zM463 123v2q0 10 2 12q12 -18 35 -18l16 4l12 6l23 16l65 54l187 168l276 251q-17 -32 -24 -38 q-47 -63 -242 -258l-156 -154l-59 -53q-29 -27 -68 -27q-40 0 -67 35zM561 254l29 141l37 193q8 40 32 203l9 71v29q-3 19 -11 27q4 0 7 -3q8 -3 14 -18q12 -27 12 -86q0 -23 -16 -197l-37 -292l-72 -64zM586 987q0 13 8 21q6 0 8 -2h4q0 -13 12 -13l9 4l2 -2q8 -5 8 -10 l-6 -6q-12 -21 -23 -25q-5 0 -12 7q-10 17 -10 26z" />
<glyph unicode="O" horiz-adv-x="1191" d="M315 743q0 -159 97 -270q-8 -5 -2 -14q71 -95 182 -129q87 -17 119 -17q89 0 171.5 32t143.5 91q121 112 121 277q0 129 -57 258q-3 11 -33 76q-43 97 -91 140q-46 42 -105 42h-3q1 0 -4.5 2t-19 5.5t-31.5 8.5q10 17 10 33q0 32 -22 41q-9 6 -19 6v320q0 12 -12 12 t-12 -12v-322q-39 -12 -39 -39q0 -15 12 -27l2 -2h-10q-15 0 -23 -8q-167 -43 -268 -180q-107 -155 -107 -324zM395 735q0 156 89 279t229 160q-74 -35 -139 -119.5t-97 -188.5q-31 -85 -31 -174q0 -134 68 -205q-21 15 -39 33q-80 83 -80 215zM465 426q97 -66 227 -66l72 5 q164 23 259 139.5t95 290.5q8 -24 8 -88q0 -55 -8 -76q-25 -103 -104.5 -178.5t-196.5 -106.5q-49 -12 -102 -12q-152 0 -250 92zM465 696q0 94 41 197q43 107 118 186.5t154 91.5q114 -24 188 -124t74 -252q0 -158 -85.5 -257.5t-256.5 -99.5q-50 0 -116 17q0 5 -7 8 q-53 30 -81.5 91t-28.5 142zM733 1284q0 6 15 12v-6q0 -12 12 -12t12 12v10q4 0 6 -2q8 -8 8 -20l-4 -18q-2 2 -16 2q-10 0 -12 -2q-21 15 -21 24z" />
<glyph unicode="P" horiz-adv-x="720" d="M8 807q0 -16 11 -26.5t26 -12.5l100 -188q57 -105 79.5 -151t74.5 -165l16 -39q43 -99 72 -155q15 -21 37 -21l16 4l4 2h2q60 0 60 56q0 44 -33 106l-27 55q-28 54 -43 95q-3 13 0 16q3 6 27 16l37 19q97 67 152 154.5t55 172.5q0 65 -33 115q-14 36 -47 62 q-79 73 -211 73q20 17 23 37v4q0 19 -12 31t-32 12q0 71 3 80l8 107l6 98q2 8 2 109q0 131 -14 172q-3 8 -13 8q-4 0 -8 -4t-4 -9v-4q16 -69 16 -155l-4 -115l-6 -100l-8 -111q-2 -6 -2 -80v-2q-19 -9 -19 -31q0 -12 6.5 -24t14.5 -17l4 -2q-2 -2 -2 -6q-178 -15 -322 -159 q-12 -9 -12 -27zM111 811q71 62 151 88q-92 -41 -92 -98q0 -3 10 -45q11 -29 49 -84l27 -39q50 -65 63 -146l-22 -12l-6 -4l-19 37l-59 110zM190 801q0 24 21 45q42 37 186 72q82 -5 134.5 -44.5t52.5 -99.5q0 -34 -15 -61q-49 -110 -231 -215q-15 71 -66 145l-26 41l-29 45 q-27 41 -27 72zM324 401q2 2 6 2l4 3q240 124 305 276q9 15 12 31q-3 -33 -18 -68q-52 -123 -178 -211l-33 -16q-23 -10 -31 -18.5t-8 -22.5q0 -15 2 -17q4 -18 18 -51l46 -88q36 -73 36 -110q0 -32 -26 -35q2 2 2 14l-4 16q-23 39 -70 150l-22 51l-17 39zM342 1042 q0 13 16 13l21 -4q2 -2 2 -9q0 -9 -6 -18h-2q-5 -3 -12 -3q-4 0 -9 1q-10 10 -10 20z" />
<glyph unicode="Q" horiz-adv-x="1044" d="M154 504q0 -163 97 -263t253 -100q38 0 82 6l18 -141q9 -35 37 -35q14 0 23 6l30 -4q43 0 43 52l-2 18l-4 31q-8 21 -8 47q0 14 4 18q20 20 59 43q51 26 70 45q143 149 143 328q0 120 -71 223q-37 99 -113 153t-178 54q-33 0 -70 -6q13 23 13 41q0 31 -35 37q0 107 8 178 q8 93 8 199q0 112 -18 204q0 11 -13 11q-12 0 -12 -13v-2q19 -84 19 -176q0 -142 -9 -221q-8 -71 -8 -182q-13 -1 -23 -19t-10 -39q0 -24 13 -34l-11 -5q-15 -3 -20 -16q-141 -50 -228 -170.5t-87 -267.5zM229 502q0 135 87 241.5t223 137.5q-92 -42 -160.5 -128t-93.5 -186 q-11 -72 -11 -94q0 -96 47 -162.5t130 -89.5q-66 9 -113 47q-109 77 -109 234zM295 473q0 25 10 90q32 137 143 233t250 103q35 -8 74 -35q109 -83 109 -258q0 -109 -49.5 -202t-133.5 -140q-2 2 -8 43q-6 52 -20 74t-43 22q-20 0 -33 -8h-8q-12 -2 -22.5 -15t-10.5 -26v-4 l20 -127q-2 -2 -22 -2q0 10 -10 10q-115 0 -180.5 65.5t-65.5 176.5zM512 993v8q0 10 6 19l6 10l8 -4q8 0 11 6l8 -4l4 -8v-6q0 -9 -6 -21q-6 0 -10 -4q-12 -12 -19 -12q-5 0 -8 16zM569 893l6 8l29 4zM621 381q8 3 14 0q12 -3 22 -23q8 -24 13 -55l8 -49l-29 -12l-18 120 q-5 14 -10 19zM662 164q92 29 162.5 99.5t107.5 168.5q29 98 29 170l-5 66l-4 26q25 -67 25 -135q0 -85 -35.5 -167t-101.5 -148q-15 -15 -64 -43q-44 -25 -59 -41t-15 -39q0 -18 3 -21l6 -30l4 -31q2 -2 2 -21q0 -24 -21 -24q-16 0 -18 2l4 18z" />
<glyph unicode="R" horiz-adv-x="1083" d="M201 614q0 -25 22 -34q24 -17 43 -17q23 0 43 33q4 7 15.5 25t24 38t24.5 41l43 76q8 13 18.5 31t11.5 20q2 4 4.5 8.5t4 7t2.5 3.5l8 -12l55 -78l103 -160q76 -122 122 -207q11 -20 33 -20q13 0 15 2q2 -7 8 -7q2 0 4 1q24 3 39 12q12 11 24.5 40t12.5 48q0 56 -66 147 q-18 27 -49 58l-57 63l-41 41h10q2 -2 18 -2h60q4 -2 47 -2q95 0 166 74q31 31 51 77.5t20 84.5q0 55 -39 106q-26 51 -63 88q-102 111 -223 152q6 6 5 18q0 18 -18 37l5 8v225q0 13 -13 13q-12 0 -12 -13v-223q-8 0 -10 -2q-17 -17 -17 -35q0 -14 2 -16q-15 -3 -26 -21 l-4 -8q-61 -121 -213 -344q-158 -237 -209 -362zM262 584q9 6 12 16q55 124 158 279l2 -2l10 -15l-28 -45l-31 -51l-31 -55l-53 -88l-22 -29l-11 -10h-6zM479 950q147 213 207 330q20 -7 59 -27q-4 0 -6 -2q-43 -12 -82.5 -61.5t-83.5 -147.5l-51 -104l-2 -10l-33 18z M532 922l7 4l53 108q83 176 153 199q2 2 25 2h6q81 -52 127.5 -108t46.5 -105q0 -65 -78.5 -97t-209.5 -32q-58 0 -130 29zM565 827l35 -8l74 -4q99 0 181.5 23.5t123.5 64.5q19 19 27 37v-4q-37 -93 -127 -131q-25 -14 -76 -14q-41 0 -45 2h-62q-16 0 -18 2h-23q-6 0 -8 -2 h-6l-6 -9v-4q0 -7 10 -14l6 -4l2 -2q6 -10 39 -43l62 -62l45 -55q59 -83 59 -135q0 -18 -8 -37q-8 -22 -13.5 -28.5t-23.5 -12.5q6 12 6 23l-4 16q-9 17 -127 209l-102 162zM680 1378q0 9 4 13q5 -5 8 -10t4 -9v-3v-1l-8 -4q-8 5 -8 14z" />
<glyph unicode="S" horiz-adv-x="976" d="M199 272q0 -74 41 -118q42 -45 141 -75t223 -30q215 0 291 88q35 47 35 94q0 37 -8 50v12q0 44 -19 86q-35 80 -155 151q-75 41 -105 56l-96 49q-98 49 -107 88q-2 2 -2 18q0 35 31 50q30 12 100 12q60 0 64 -2l69 -2q48 0 86 10q27 9 27 39q0 23 -14 43q-3 6 -8 6l-7 6 q-71 47 -186 47v4q-4 11 -12 11l4 34q0 34 -17 37l7 203l4 94l4 84l6 215q0 13 -12 13q-13 0 -13 -13l-6 -215l-4 -84l-4 -98l-6 -197l-4 -2q-4 0 -6 -2q-16 -7 -25.5 -21.5t-9.5 -29.5q0 -24 24 -39l-36 -6q-95 -20 -151 -71t-60 -122q0 -47 20.5 -78.5t75.5 -70.5 q50 -40 170 -109l63 -38q140 -83 193 -136q47 -47 47 -84q0 -46 -67.5 -74t-172.5 -28q-113 0 -215 31q4 11 -6 14q-25 11 -37.5 35t-19.5 78q-8 50 -22.5 73t-43.5 27q-10 10 -26 10q-17 0 -28 -11t-11 -28l-2 -37q-2 -4 -2 -47zM276 272q0 37 3 43q2 4 2 41v2 q10 -3 16 -16q6 -9 16 -61q8 -49 19 -74q10 -23 20 -33q-46 21 -61 39.5t-15 58.5zM360 741q3 42 41 74q70 55 199 55q98 0 141 -32q9 -9 25 -9q15 0 29 17l-2 -4q-3 -14 -25 -17q-18 -6 -68 -6l-67 2q-4 2 -66 2q-83 0 -116 -17.5t-33 -64.5q0 -20 2 -22q12 -48 117 -103 l98 -49q91 -48 102 -55q113 -67 148 -141q10 -28 14 -49q-9 13 -39 47q-56 56 -207 147l-213 131q-40 32 -63 58q-17 24 -17 36zM530 985q0 11 9.5 21t17.5 10q12 0 12 -17q0 -25 -8 -38q-12 0 -14 2q-17 10 -17 22z" />
<glyph unicode="T" horiz-adv-x="970" d="M115 788q0 -16 12 -28v-2q12 -31 51 -31q38 0 96 25q54 22 160 82q66 40 82 43l4 2q172 -370 246 -580q7 -18 20 -23l17 -4q39 0 39 37v4q24 41 24 88q0 89 -75 224l-17 30q-7 17 -31 56q-58 96 -77 145q-21 40 -21 82q0 27 29 43q37 21 117 45q59 19 104 47q31 22 31 53 q0 27 -11.5 46.5t-31.5 19.5l-17 -4q-133 -60 -325 -160q2 2 2 6q0 13 -13 13q-6 0 -10 -7q-13 29 -35 29q0 132 9 285l4 137q0 87 -6 154q0 12 -13 12q-12 0 -12 -12q6 -68 6 -154l-4 -137q-8 -139 -8 -289l-8 -4q-17 -14 -17 -31q0 -24 23 -37l6 -4l-328 -166 q-22 -9 -22 -35zM160 750q2 2 6 2l334 168l12 -23h-4l-84 -45q-95 -54 -141 -74q-65 -23 -86 -28l-21 -2zM461 1028q0 5 7 12t13 7q15 0 15 -15l-4 -16l-3 -2q0 -2 -2 -2q-6 0 -16 2q-10 10 -10 14zM569 956q262 131 330 162l4 2q-3 -20 -24 -35q-32 -21 -95 -41 q-95 -32 -129 -51q-30 -15 -30 -55q0 -47 20 -88q25 -54 80 -150l47 -84q58 -108 70 -170l4 -40q0 -37 -12 -64q-68 193 -265 614z" />
<glyph unicode="U" horiz-adv-x="931" d="M70 618q0 142 180 322l69 68l54 49l28 28q-34 15 -34 39q0 9 2 11q3 11 12 20v2q0 80 -14 244l-5 100q0 99 15 146q3 10 12 10q12 0 12 -12v-3q-14 -41 -14 -141l4 -98l15 -236q2 2 10 2q12 0 20 -8.5t10 -21.5q3 -3 0 -6q47 44 80 67q17 10 25 10q13 0 27 -14l8 -6 q12 -34 12 -57q0 -25 -11 -45.5t-40 -51.5l-35 -32q-25 -22 -31 -31q-136 -136 -196 -225q-56 -86 -56 -164q0 -83 62 -121q10 -5 8 -12t-10 -7l30 -4h9q72 9 239 185l138 153l98 113q9 12 26 12t27 -10q9 3 12 0q19 -16 19 -41q0 -36 -41 -107q-62 -101 -174.5 -205 t-214.5 -153q-79 -29 -109 -29l-33 4q-46 0 -96.5 25.5t-83.5 63.5q-65 77 -65 167zM150 618q0 -59 35.5 -106t93.5 -66q-70 43 -70 138q0 84 57.5 174t198.5 231q48 38 81.5 79t33.5 65q0 10 -2 12l-7 -6q-24 -18 -47 -41l-51 -49l-47 -50l-55 -51l-68 -63 q-153 -153 -153 -267zM391 1126q0 -4 4 -8q3 -7 17 -10q10 10 10 22v7q0 6 -2 6h-2q-8 0 -17.5 -5.5t-9.5 -11.5zM430 399l16 7q97 47 210 151t171 199q30 51 35 78q2 2 2 10l-4 -6l-100 -113l-135 -154q-61 -66 -148 -137z" />
<glyph unicode="V" horiz-adv-x="1038" d="M268 1061q28 -117 62 -330q12 -70 26 -151.5t20.5 -122t10.5 -58.5q2 -2 2 -18q0 -29 2 -31q3 -58 53 -67q17 -17 39 -17q17 0 19 2q27 9 108 90q149 159 264 303.5t121 194.5q0 4 -2 6q-2 14 -12.5 24.5t-26.5 10.5q-17 0 -26 -12q-217 -211 -398 -418l-24 -33 q-7 86 -35 264.5t-45 253.5l-14 70q-6 28 -13 39q-20 44 -61 44q-7 0 -14 -1q-2 2 -7 2l25 6q4 0 6 2q12 9 14 16l3 9q0 12 -14.5 25.5t-26.5 15.5l4 237l4 240q0 12 -13 12q-12 0 -12 -12l-4 -242l-4 -239q-10 -3 -10 -23q0 -14 10 -31v-4q0 -7 6 -10h-6q-31 -9 -31 -41v-6 zM313 1153q4 0 6 2q6 -2 12.5 -7t6.5 -9l-2 -2h-17q-6 6 -6 16zM346 1079q0 2 1 3h2q2 0 5 -1q17 -6 24 -18t15 -45l15 -68q68 -396 77 -518q0 -10 11 -10h2q-11 -19 -19 -27l-12 -16v4q0 31 -2 33q-26 127 -39 215l-12 63l-8 51zM475 287q26 10 68 63l28 41l17 27 q120 138 346 364l-27 -37q-61 -85 -150 -191t-161 -181l-61 -60q-26 -20 -37 -24h-13z" />
<glyph unicode="W" horiz-adv-x="1282" d="M231 799l5 119q2 14 12 24t26 10h5l14 -4l12 -2q2 -2 14 -2q21 -12 27 -18q21 -27 21 -166v-86l-2 -176q0 -50 2 -54v-26l61 45q93 63 100 65q29 16 50 19q2 2 8 2q-10 3 -13 12q-8 13 -8 31q0 13 8 24t19 13q0 110 -4 700l-13 152l-4 86l4 67q0 11 13 11q12 0 12 -13v-2 l-4 -63l4 -84l12 -154q4 -610 4 -698q31 -6 31 -27q0 -17 -14 -31l6 -6q3 -12 -8 -16l-4 -2h-9q-2 -2 -6 -2q12 -3 25 -15l8 -10q68 -16 94 -112l17 -62l6 -24l125 116l278 273q14 14 25 14q7 0 24 -10q0 10 11 10q10 0 10 -10q0 -94 -64 -170q-76 -92 -227 -219 q-55 -50 -141 -109q-25 -19 -55 -26l-27 -5h-6q-17 0 -19 2q-32 9 -47 48q-20 42 -37 114q0 22 -8 41l-10 49l-2 2l-60 -57q-104 -104 -165 -115l-27 -4q-25 0 -55 23q-8 8 -2 14l-9 4q-10 8 -14 15l-4 6q0 4 -2 6v8q-2 2 -2 16v2l-4 50q-17 272 -17 387zM301 303 q20 -14 41 -14q35 0 74.5 26t101.5 88l31 31q16 12 33 29l4 2v4l-21 -8q-26 -15 -92 -62l-96 -67q-50 -29 -76 -29zM309 795q0 -107 17 -379l2 -23l8 4l10 9v26q-2 4 -2 57l2 185q2 6 2 90q0 88 -2 98q-3 31 -16 51q-2 7 -17 11h-2q2 -2 2 -15zM590 590l4 -15q27 15 27 27 l-9 4h-4q-18 0 -18 -16zM657 496l19 -62l6 -33l6 -30l25 -82q0 -6 2 -8l30 26l-10 35q-19 79 -33.5 108t-44.5 46zM768 223l25 15q45 25 137 104q139 118 223 215q33 42 47 84l-260 -256l-139 -133z" />
<glyph unicode="X" horiz-adv-x="1073" d="M133 338q0 -25 23 -35l4 -6q24 -18 63 -18q61 0 158 40.5t197 108.5l4 6l133 -356q9 -27 37 -27q10 0 12 2l8 4q32 -1 49 15.5t15 48.5q0 32 -41 141l-37 78q-45 91 -56 129l-4 20l2 11q10 24 48 45q26 18 126 61q88 40 119 66q33 26 33 65q0 11 -10 11q-3 0 -6 -3 q-9 27 -37 27q-10 0 -12 -2l-62 -22q-65 -27 -121 -62l-116 -70q-11 76 -72 232q-65 145 -133 174v4q18 15 18 37q0 24 -22 33l-7 4q0 84 -12 266t-12 270q0 13 -12 13q-13 0 -13 -13q0 -75 13 -272q12 -182 12 -262q-14 -6 -14 -25l4 -20l-4 -2q-12 -1 -20.5 -13t-8.5 -24 q0 -8 2 -10q63 -209 158 -461q-194 -103 -381 -172q-25 -13 -25 -37zM193 303q161 59 372 170l13 -29q-6 3 -13 0q-105 -68 -198 -108q-74 -27 -115 -35l-29 -2zM432 1075v4l8 -4q11 -7 11 -14l-2 -8l-5 -6l-4 4q0 4 -2 6q-6 9 -6 18zM465 993q20 -11 43 -41q30 -40 63 -114 q61 -139 70 -230v-4l-35 -18q-91 235 -141 407zM635 512l115 66l61 36l53 29q47 28 121 53l4 2q-10 -14 -24 -22q-16 -12 -99 -51q-79 -34 -133 -64q-37 -21 -53 -53q-2 -2 -2 -16l4 -27q8 -34 57 -133l37 -78q38 -77 41 -133q0 -25 -10 -35q-4 -4 -19 -8q3 12 0 24z" />
<glyph unicode="Y" horiz-adv-x="1157" d="M305 1221q0 -10 6 -19l11 -6q-3 -3 -3 -14q14 -71 66 -260l45 -138l41 -120l2 -5q-12 -23 -53 -122q-69 -176 -82 -203l-4 -19q0 -16 10 -26l-4 -6q-6 -10 4 -13q33 -20 55 -20q19 0 31 12q52 52 105 191l79 200q20 39 74 70q65 36 170 84l107 49q54 26 92.5 59t50.5 62 q2 3 2 6q0 4 -6 6v2q0 17 -2 19q-9 24 -37 24q-12 0 -14 -2q-81 -30 -211.5 -95t-216.5 -120l-60 -41q-51 195 -67 248q-22 75 -52 137l-36 58l4 16q-3 29 -29 35l4 188q2 16 2 189q0 12 -12 12t-12 -12q0 -167 -3 -191l-4 -188q-14 -4 -24 -11q-29 -16 -29 -36zM330 1221 q2 8 16.5 16t26.5 8h2q7 0 10 -8l-2 2q-11 4 -14 -6v-8h-11q-15 0 -24 -6q-4 0 -4 2zM377 276q22 3 31 21q22 42 84 211q51 128 88 178q16 19 84 64q74 50 197.5 112.5t209.5 93.5q-50 -56 -221 -131q-103 -44 -150 -71q-53 -30 -75 -52.5t-39 -64.5q-19 -40 -72 -178 q-50 -133 -100 -180q-7 -7 -17 -7q-16 0 -20 4zM395 1200q21 -24 31 -47q40 -86 100 -322l19 -67v-2l-19 -19q-108 320 -129 451q-2 2 -2 6z" />
<glyph unicode="Z" horiz-adv-x="1009" d="M47 817q0 -8 8 -16l11 -17q17 -24 24 -26l16 -4q21 0 23 2l61 12q60 15 172 47l263 84l-4 -8q-44 -59 -103 -160q-69 -115 -96.5 -155t-83.5 -103l-82 -106q-1 0 -6 -5l-10 -12q-15 -15 -15 -41q0 -25 19.5 -41.5t54.5 -17.5q32 -19 107 -19q90 0 215 25q119 24 205.5 57 t117.5 64q21 12 21 31q0 16 -14 28.5t-29 12.5q-36 -2 -187 -27l-80 -14q-66 -12 -190 -43l-8 -3l-35 -10l82 107q63 78 92 118t76 115q84 135 108 266l17 9q16 16 16 37q0 19 -13 33t-30 14q-8 0 -25 -7l-14 -4l-6 -4q-36 -36 -90 -39q11 11 16 21l2 4q5 5 2 10 q0 29 -26 39v4q0 322 -25 578q0 10 -12 10t-12 -12v-2q24 -243 24 -574v-4q-39 -14 -39 -47q0 -20 21 -29l-29 -6q-27 -9 -149 -41q-253 -65 -318 -67q-14 -1 -25.5 -13t-11.5 -24v-4q0 -11 2 -13l-4 -2zM76 807l18 -4q116 12 336 71l143 41q74 19 78 21l-6 -10 q-73 -21 -125 -39l-164 -51q-95 -35 -170 -50l-61 -10q-2 -2 -19 -2h-8l-16 21zM326 330l73 96q63 75 91 115t94 151q132 212 174 254q-12 -58 -53 -145q-44 -91 -82.5 -150.5t-126.5 -171.5l-107 -135l-31 -8zM350 256l23 4l71 19l19 6l14 4q6 0 8 2q50 14 183 39l75 16 q93 20 158 23q-37 -22 -70 -33q-79 -32 -191.5 -55.5t-205.5 -28.5h-24zM592 1024v2q0 8 8.5 16.5t15.5 8.5q4 0 8.5 -6.5t4.5 -12.5v-4q-8 -14 -21 -14q-16 0 -16 10z" />
<glyph unicode="a" horiz-adv-x="901" d="M127 197q0 -28 25 -37l4 -4q36 -19 53 -19q38 0 53 56l6 32l6 25q6 36 21 39q79 41 186.5 66.5t196.5 25.5q4 0 6 2q6 -14 14 -32t13 -29.5t8 -18.5q2 -5 6 -17.5t6 -16.5t6.5 -10.5t10.5 -9.5t16 -5l-8 -2q-8 -3 -8 -11q0 -6 5 -9t11 -1q76 36 90 76v10q0 8 -2 10l-6 27 q-5 21 -31 92q-90 265 -203 527l-39 90l-14 26l-6 8q-3 7 -8 7q-17 9 -37 12q2 2 2 16q-3 22 -27 37l-14 6q-10 335 -10 488q0 12 -13 12q-12 0 -12 -12q0 -148 10 -486q-34 0 -34 -14v-2q-17 -17 -17 -39q0 -28 27 -43q-7 -17 -8 -18q0 -5 -2 -7q-214 -602 -281 -837 q-2 -2 -2 -10zM186 164q14 7 17 22l51 168q270 60 383 90l16 9l17 -33l8 -19q-82 0 -189.5 -25.5t-201.5 -66.5q-22 -10 -31 -49l-8 -31l-6 -30q-6 -23 -13.5 -32t-19.5 -9q-11 0 -23 6zM281 440q16 46 79 227.5t93 268.5l28 -72q-4 -10 -10.5 -27.5t-17 -46.5t-19.5 -53 l-51 -155l-41 -129zM365 459l36 116l50 146l41 115q83 -209 108 -267l23 -49q-5 0 -7 -2q-155 -40 -251 -59zM420 1118q0 22 26 25l5 -56h-5q-26 0 -26 31zM471 1139h2q12 -6 12 -19q0 -9 -6 -18q-4 0 -6 -2q0 37 -2 39zM479 1071l19 14h6q20 0 33 -8v-2l4 -6l14 -27l39 -86 q112 -265 203 -526l28 -90l6 -29q3 -3 3 -6v-2q-9 -18 -31 -37l4 17l-2 12q-29 82 -66 158l-24 53q-56 114 -140 330l-88 223z" />
<glyph unicode="b" horiz-adv-x="1052" d="M158 475q0 15 2 17l67 176l146 372l22 54l13 24l10 25q12 39 39 90q3 8 12 14l-2 2q-31 19 -31 43q0 22 27 43q10 10 22 13q-26 82 -26 219l4 100q0 12 12 12t12 -12l-4 -98q0 -135 27 -217h6q26 0 47 -21q8 -8 12 -20q125 -31 237.5 -126t156.5 -210l14 -35l16 -39 q9 -24 9 -49q0 -64 -93 -117q-59 -30 -108 -41l-31 2q2 -2 6 -2q15 0 17 -2q51 -14 87 -67.5t36 -118.5q0 -97 -74 -135q-30 -13 -76 -19l-10 -2q-67 -31 -178 -31q-64 0 -196.5 36.5t-197.5 72.5q-12 9 -14 16q-18 12 -18 31zM242 487q53 -29 171.5 -59.5t170.5 -30.5 q143 0 172 45l-21 -6q-36 -8 -63 -8l-47 -2q-176 0 -285 47q-32 14 -45 27q-14 8 -14 24t16 56q32 73 100 178l-6 2l-10 2h-2l-2 2h-4l-6 4q-10 3 -13 12zM301 535q3 -17 16 -25q15 -15 48 -25q112 -39 264 -39q97 0 135 23q-2 50 -67 124.5t-156 129.5l-113 29l-10 2 q-9 -11 -64 -109l-39 -74q-1 -1 -2 -4t-3.5 -9.5t-4.5 -12.5zM375 838q33 10 45 10q59 0 145 -51l6 -2q73 -21 154 -21h18q43 0 68 12q24 10 27 25q-49 -14 -138 -14q-106 0 -194 30q-55 27 -55 76q0 5 16 64l39 86l59 116l-45 15q-68 -142 -145 -346zM461 1294l4 -12 q8 5 16 0q9 -6 19 -6l32 10q10 4 15 8q-2 2 -8 2q-9 0 -9 11q0 13 13 10h2q-14 14 -33 14q-18 0 -34.5 -12t-16.5 -25zM471 903q0 -67 158 -82l82 -4q88 0 131 14v13q0 84 -69 172q-75 95 -189 145l-60 -119q-53 -121 -53 -139zM537 1260q95 -21 184 -86 q90 -65 145.5 -153.5t55.5 -176.5l-4 -39q-6 -37 -33 -64l20 11q82 46 82 100q0 46 -22 82l-17 33q-43 110 -149 201t-228 122q-9 -17 -26 -26zM702 696q51 -48 62 -63q78 -96 78 -164q0 -20 -11 -46.5t-28 -43.5q22 3 37 12q61 24 61 117q0 55 -31.5 103.5t-74.5 60.5 l-33 4q-21 3 -25 14v6h-35z" />
<glyph unicode="c" horiz-adv-x="892" d="M184 436q0 -77 39 -139q39 -65 105 -103t147 -38q89 0 183 45t178 129q12 9 12 26t-11 28t-28 11q-18 0 -27 -12q-23 -23 -59 -51h-2l-45 -15l-39 -16q-47 -18 -84 -18q-89 0 -133 18q-42 18 -68 65t-26 97t30 91.5t111 104.5l39 31q72 55 94 86q14 14 14 35q0 9 -6 33 q-4 11 -12 8l-4 -2q-9 24 -37 24q-12 0 -76 -22q3 7 0 10q0 19 -15.5 39t-33.5 21l-2 4l-6 6q0 144 -22.5 419.5t-39.5 305.5q-3 8 -10 8q-6 0 -10 -5t0 -11q8 -8 20 -123q12 -108 24.5 -310t12.5 -284q0 -6 2 -8q-47 -27 -47 -58q0 -33 49 -45q2 -2 19 -2q-53 -42 -68 -57 q-79 -73 -123.5 -159.5t-44.5 -166.5zM262 434q0 30 23 107q32 84 119 164t159 92q22 3 29 26l2 -12q0 -6 -10 -23q-8 -10 -90 -81l-48 -39l-59 -52q-80 -80 -80 -161q0 -55 27 -101q26 -49 78 -70.5t141 -21.5q38 0 90 19l14 6q-99 -51 -184 -51q-87 0 -149 57t-62 141z M377 866q0 14 26 31q52 0 52 -37q1 -2 1 -4q0 -3 -3 -6q-8 -8 -25 -8l-20 4q-31 6 -31 20z" />
<glyph unicode="d" horiz-adv-x="1017" d="M289 836q0 -29 30 -41v-2q14 -472 48 -748q2 -14 12.5 -24.5t26.5 -10.5h4q4 0 6 2q11 -14 30 -14h9q75 15 145 49q2 0 2 -2q5 -8 14 -2l43 29l50 30l43 31q24 12 47 35l37 37q19 15 41 41q53 68 73.5 124t20.5 132q0 115 -68.5 206t-181.5 140q-105 39 -189 39h-12 q3 13 -4 20q-11 19 -35 33q-4 4 -14 4h-2q0 74 -8 115l-15 110q-12 147 -12 494q0 12 -12 12t-12 -12q0 -347 12 -494l14 -114l8 -92q-9 3 -14 -2q-41 -38 -41 -64q0 -23 14 -33l-65 8h-4q-17 0 -28 -9t-13 -23v-4zM397 786h27q2 -2 29 -2v-2q0 -251 22 -557l12 -73l9 -25 q9 -18 30 -27q-44 -16 -84 -24q-32 319 -45 710zM410 897q0 10 12 25q2 -2 8 -2h41q19 -16 25 -25q4 -4 0 -8q-2 0 -2 -2l-35 -4l-8 -7q-41 0 -41 23zM473 782q67 -10 117 -26q122 -54 186 -129.5t64 -163.5q0 -55 -15 -82q-25 -80 -93 -150t-165 -114q-30 0 -47 10l-4 8 q-1 2 -2.5 6t-3 8.5t-2.5 8.5l-12 69q-23 320 -23 555zM496 858q8 4 12 8h14q93 0 187 -37q108 -45 175.5 -133.5t67.5 -191.5q0 -73 -32.5 -148t-88.5 -131q87 119 87 238q0 112 -77 206t-218 156q-66 24 -127 33z" />
<glyph unicode="e" horiz-adv-x="1124" d="M287 446q0 -28 16 -40l4 -5l6 -2l13 -6l268 -121q57 -28 68 -36q9 -9 26 -9h6q28 9 31 35q23 38 23 62l-5 26q-16 42 -65 62q-68 30 -150 51l-49 14l-16 8l4 2l4 7q86 116 104 153l66 -41q65 -40 158 -90l18 -4q23 0 33 23l2 4q35 30 35 59l-4 20q-15 37 -52 58 q-37 20 -145 65q-28 9 -41 19l-10 6h-2l4 4q3 9 12 21l41 61l60 86q126 -90 237 -195q6 -6 21 -10q3 -7 12 -4q59 24 59 66q0 19 -8 32q-21 44 -106 111q-146 106 -267 156l-4 2q-10 0 -10 -15q0 -4 2 -6l-18 4q-14 0 -24.5 -11t-10.5 -28l4 -16l-8 -8l-60 -94l-6 6l-28 4 q-43 191 -43 579v125q0 13 -13 13q-12 0 -12 -13v-131q0 -24 4 -176q11 -251 41 -403q-17 -10 -20 -29v-10q0 -35 30 -47l-37 -64l-32 -57l-107 -182q0 -3 -16 -19l-17 -14q-26 -26 -26 -58zM377 455q29 29 35 41q44 69 108 182l39 -21q-24 -41 -104 -151l-9 -8 q-8 -11 -2 -21q2 -7 29 -20l49 -15q90 -24 146 -47q37 -19 55 -51l4 -18q0 -4 -10 -37l-6 8q-6 8 -82 45zM516 887v6q2 7 8 10q2 2 6 2q3 -5 11 -8l12 -4l-18 -31q-19 10 -19 25zM557 745q93 158 137 230l2 2l37 -27l-59 -88l-41 -59l-8 -10l-7 -13l-4 -6q-2 -2 -2 -8 q0 -11 13 -21q10 -10 53 -24q97 -39 141 -62q35 -19 45 -47l2 -10q0 -19 -16 -35q-3 13 -19 19l-149 86q-11 6 -52.5 30t-72.5 43zM694 1071q149 -73 258 -149q82 -60 101 -103q6 -15 6 -24l-4 -15l-2 -4q-3 15 -13 25q-168 154 -346 270z" />
<glyph unicode="f" horiz-adv-x="1083" d="M344 477q0 -28 25 -37v-2q-3 -8 8 -12l18 -2q46 0 70 43q29 51 67 172l17 49q14 62 24 78q162 -83 218 -100q2 -2 12 -2q12 0 24 8t13 18l2 4q24 21 24 47q0 12 -10 29q-15 28 -43 43l-96 43l-47 21q-28 9 -37 18l-10 6l-2 2l2 10l10 25q2 8 31 74q35 87 47 131l84 -49 q85 -53 176 -90l16 -5q24 0 33 25q4 4 4 10l2 2q12 9 12 23q0 21 -28 49q-31 37 -102 82.5t-138 71.5q-50 18 -80 18q-18 0 -20 -2q-8 0 -8 -10q0 -14 12 -11q3 3 16 3q37 0 78 -21q65 -25 131 -67t96 -78q18 -18 21 -29v-4q-5 8 -17 12q-88 40 -165 88l-170 96q-5 5 -17 5 l-18 -5q0 15 -4.5 23t-20.5 18l-12 11l-4 2q-3 88 -10 153l-5 62l-6 110q0 13 -12 13t-12 -13l10 -174l10 -172v-2l-4 -2q-18 -9 -18 -31q0 -26 14 -45.5t33 -19.5q-92 -239 -119 -320l-2 -2l-4 -12q-65 -184 -117 -369q-2 -2 -2 -10zM412 451q4 4 8 16q67 218 104 328 l31 -19l-27 -82q-44 -165 -88 -217q-24 -24 -28 -26zM551 868q56 164 113 301l28 -16q-5 -31 -49 -133q-23 -62 -31 -74q-12 -34 -12 -45q0 -15 21 -24l41 -21q112 -48 135 -61q27 -15 43 -37q6 -9 6 -19q0 -12 -8 -20q-10 17 -23 20q-71 21 -264 129zM565 1249q-1 4 -1 6 q0 7 5 9h4q13 0 31 -11q0 -13 -10 -30q-3 -6 -4 -6q-2 -1 -3 -1q-5 0 -12 7q-10 17 -10 26z" />
<glyph unicode="g" horiz-adv-x="911" d="M147 563q0 -81 35 -143q37 -66 106.5 -98.5t192.5 -32.5q174 0 260 63q91 41 117 131q8 16 8 58q0 61 -43.5 105.5t-111.5 55.5l-60 7l-137 12q-39 0 -76 -37q-6 -8 0 -14q-2 -2 -2 -13l-4 -65l-4 -68q0 -18 10 -29.5t27 -11.5q18 0 29.5 10t11.5 27l4 66l2 10 q31 -10 98.5 -20.5t104.5 -10.5q0 -13 6 -22q20 -33 20 -64q0 -49 -73.5 -80.5t-184.5 -31.5q-49 0 -51 2q-158 53 -158 204q0 48 19 107q31 84 109.5 163.5t160.5 110.5q35 9 66 11q154 15 194 47q19 16 19 32q0 9 -11 27q-3 32 -32 35l-111 10q-47 0 -79.5 -9.5 t-102.5 -41.5q0 10 -2 12q-3 18 -21 33l-2 4q-15 18 -28 21q0 273 -19 503q0 13 -12 13t-12 -13q18 -217 18 -512l-4 -4q-25 -25 -25 -65q0 -19 3.5 -26t15.5 -15q-127 -86 -199 -207t-72 -246zM227 553q0 104 60 209q58 101 159 175t213 99q2 2 23 2l104 -10h7q9 0 26 10 q0 -2 -8 -10q-20 -18 -63 -27q-62 -12 -121 -16l-72 -10q-87 -31 -168 -113.5t-113 -173.5q-20 -50 -20 -113q0 -130 106 -196q-32 10 -49 18q-84 47 -84 156zM422 1057q0 8 6 23.5t12 21.5q3 -6 11 -6q12 0 14 -2l8 -33l4 -8l-28 -19h-15q-12 3 -12 23zM489 694q15 6 31 6 q37 0 78 -8l53 -4l58 -6q135 -21 135 -143q0 -64 -33 -103q6 21 6 43q0 48 -31 105l-6 8v6q0 17 -9 28t-23 13l-76 8q-113 12 -148 27q-2 2 -14 2q-6 9 -21 18z" />
<glyph unicode="h" horiz-adv-x="919" d="M164 446q0 11 2 13q116 303 276 622h-4q-15 0 -27.5 10.5t-13.5 28.5v6q0 20 15 41l4 4q0 7 -3 68t-7 115l-5 43l-12 110l-12 138q0 12 12 12t12 -12l13 -134l12 -110l4 -47l10 -166h6q15 0 21 -14l4 -19v-16l4 -9v-10q2 2 6 2q86 0 86 -63q0 -57 -90 -180l-22 -35 l-6 -13q-3 0 -3 -2l7 -10l16 -16q47 -37 57 -43l101 -70l133 260q7 14 18 17v4q0 10 10 10q45 0 71 -18.5t26 -53.5q0 -18 -2 -20q-16 -64 -76 -144l-51 -67l-45 -62q-28 -41 -90 -186q-52 -124 -103 -188q-26 -29 -47 -29q-8 0 -19.5 5t-11.5 9v4q-12 0 -22.5 9t-11.5 22 l-3 10q0 8 7 19q41 65 161 293q-7 0 -16 6l-164 92q5 -5 2 -14l-16 -33l-15 -35q-39 -82 -51 -106q-52 -86 -96 -86h-10q-13 0 -15 2q-26 9 -26 36zM242 438q5 2 12 13q44 50 90 157l14 35q9 29 17 37q3 6 10 6l-37 19q-43 -97 -106 -267zM379 776q25 -10 217 -121l8 -6 l12 23q-44 24 -159 114q-31 28 -31 43q0 13 8 21l27 39q10 15 69 112q17 39 17 54l-2 14q-2 14 -14.5 23t-32.5 10q20 -14 20 -37l-4 -16zM420 1126q0 -9 12 -18q7 -3 10 0h2l2 41v4q-2 2 -2 10l-4 -2v-8q0 -12 -12 -12h-4zM461 236l12 -3q14 0 29 21q47 62 100 182 q60 140 92 193l45 61l52 68q59 96 71 135q2 2 2 16q0 20 -11 32.5t-28 14.5q9 -9 9 -24l-5 -19l-20 -39l-27 -53q-91 -171 -102 -194q-149 -288 -205 -377q-6 -8 -14 -14zM471 1106h2l-2 2v-2z" />
<glyph unicode="i" horiz-adv-x="743" d="M231 98q0 -22 23 -32q18 -27 43 -27q27 0 53 29q36 30 72 92q43 85 102 223l27 68q17 43 49 90l37 55q59 89 59 141q0 43 -28 73q-23 25 -52 25q-6 0 -12 -1h-2q-19 -6 -29 -25q-49 -127 -124 -281q-14 14 -37 17q0 51 -13 162q-3 24 -5 47t-3 43t-2 26q-3 37 -6 45 l-2 88q-14 342 -14 494q0 12 -13 12q-12 0 -12 -12q0 -152 14 -494l2 -88q4 -49 17 -163q12 -105 12 -162v-13l-10 -6q-10 -10 -10 -20q0 -14 9.5 -29t22.5 -22l9 -4l-172 -332zM285 63q14 6 20 21l178 342q101 191 164 354l2 17v4l13 -15q14 -20 14 -47q0 -18 -2 -20 q-9 -45 -53 -111l-37 -55q-21 -27 -37 -59l-15 -35l-26 -68q-109 -251 -170 -309q-20 -20 -37 -23zM393 501q1 3 1 5q2 2 9 2l29 -4h4l-18 -33q-4 0 -6 2q-19 12 -19 28z" />
<glyph unicode="j" horiz-adv-x="839" d="M109 295q0 -13 10 -78q-2 -2 -2 -6q58 -205 235 -205q114 0 211 80.5t139 212.5q35 104 54 233l18 107q19 105 19 201q0 27 -11 73q-6 21 -20 29l-8 4q3 6 -4 10q6 9 6 23q0 17 -15.5 28t-35.5 11q-15 0 -17 -2q-18 119 -18 430q0 169 8 196v3q0 12 -12 12q-13 0 -13 -10 q-8 -27 -8 -199q0 -121 6.5 -258.5t14.5 -188.5q-15 -15 -15 -36q0 -25 31 -41v-2q0 -7 -2 -9l-27 -188l-30 -199q-46 -221 -148 -329q-76 -76 -153 -76q-10 0 -48 10q-13 44 -20 86l-10 41q-9 49 -29 82q-14 26 -41 29l-8 -4l-12 4h-4q-13 0 -25 -10t-14 -21q-2 -4 -2 -43z M188 326q0 26 15 -4q14 -31 20 -68l10 -43l7 -37l8 -27q-61 45 -61 150q0 14 1 29zM221 72q13 -10 25 -13q53 -16 80 -16q120 0 206 100q116 122 166 369q17 80 31 203l6 47l8 47l15 92v6l-4 17q7 -3 10 -17q8 -16 8 -67q0 -102 -18 -197q-12 -49 -19 -106q-4 -22 -8.5 -52 t-7.5 -48.5t-6 -30.5q-34 -160 -113 -250q-54 -62 -120.5 -95.5t-129.5 -33.5q-78 0 -129 45zM674 967q0 11 9 19.5t19 8.5q8 0 17.5 -6t9.5 -12v-4q0 -13 -12 -19l-4 -8l-4 -2q-5 0 -7 -2l-12 4q-16 6 -16 21z" />
<glyph unicode="k" horiz-adv-x="1046" d="M193 985q-2 5 -2 10q-1 13 11 27q16 18 36 20q0 134 2 148v153q0 172 -13 312v2q0 12 13 12q12 0 12 -10q12 -132 12 -316v-153q-2 -14 -2 -152q24 -15 27 -41l-2 -10q54 -25 92 -149q12 -39 49 -191l14 -57l222 360q10 19 32 19q12 0 21 -6q2 0 2 -2l10 2q41 -18 41 -60 l-4 -31q-11 -42 -68 -124l-45 -62q-33 -40 -75 -111q-9 -15 -9 -26q0 -15 23 -31q45 -26 137 -47l82 -20q107 -33 156 -73t49 -99l-4 -39q-2 -10 -11.5 -9.5t-9.5 11.5v2q2 2 2 10q-10 -23 -30 -23q-13 0 -15 2q-73 21 -188 86l-76 41q-73 36 -147 60q9 -43 55 -131 q20 -31 38.5 -81t18.5 -75q0 -62 -67 -108q-4 -3 -7 -3q-4 0 -8 5h-6q-17 0 -29 18q-78 129 -157 408v2l-13 47l-18 59l-16 55q-22 74 -125 318q-2 2 -2 12q0 14 6 23q-12 9 -14 16zM217 993q0 -5 12 -8q10 3 23 0q3 8 10 8v4q0 13 -14 19h-4q-10 0 -18.5 -7.5t-8.5 -13.5 v-2zM274 965l2 -2q95 -230 125 -322l25 -80l2 6q-2 7 -20 76l-13 53l-8 31l-6 23l-25 100q-12 37 -35 73t-42 46zM457 446q65 -240 141 -360l6 -14q23 23 23 65q0 28 -10.5 55t-43.5 89q-30 49 -42 79.5t-17 67.5zM489 518q163 -56 228 -88l82 -43q94 -58 170 -80 q20 -6 26 -24q-3 48 -43 82q-45 39 -147 65q-17 6 -82 23q-112 27 -143 47q-31 22 -31 47l10 37q37 63 76 114q2 2 39 52q61 81 71 129l5 24q0 17 -2 22t-13 11v-8q0 -10 -6 -19z" />
<glyph unicode="l" horiz-adv-x="888" d="M344 150l31 -23q62 -41 192 -115.5t205 -111.5l12 -4q0 -5 2 -7q3 -5 8 -5q3 0 7 3q49 37 49 78q0 22 -12 43q-30 45 -78 70q-30 18 -215 100q-37 14 -60 29l-18 10q-4 4 -4 6l2 10l10 25l43 72l131 207q119 192 119 290q0 54 -37 78q-2 2 -8 2v2l4 2q15 9 18 27v18 q-2 2 -2 7q0 10 -12 10v4q0 13 -7.5 23t-18.5 10l12 204q8 65 8 218q0 126 -18 237q0 10 -13 10q-12 0 -12 -12v-2q18 -95 18 -203q0 -173 -8 -252l-12 -206q-23 -16 -23 -43q0 -16 13 -35q-16 -10 -19 -25q-61 -201 -260 -524l-53 -76l-29 -43l-10 -16l-4 -6q-2 -2 -2 -9 q-2 -13 -2 -17q0 -30 53 -60zM379 221l24 35q25 33 54 80q215 362 268 545l2 2q21 -21 21 -58q0 -24 -13 -65q-23 -85 -59 -142l-174 -276l-45 -76q-15 -27 -15 -43q0 -15 33 -35l62 -30l163 -72q97 -51 119 -88q10 -17 10 -33v-12l-4 -8q-3 14 -20 24q-73 37 -199 110 t-188 114q-17 10 -39 28zM682 963v4q3 -6 10 -6q13 0 13 12v12h2l2 -6q0 -9 -7 -23q-3 -13 9 -16q5 -3 10 2v-2q0 -7 -11 -7q-4 0 -8 1l-12 6q-8 13 -8 23z" />
<glyph unicode="m" horiz-adv-x="1236" d="M150 360q0 -21 16 -34l14 -7q-3 -7 6 -10l11 -6l12 -8q9 -6 20 -6l13 2q31 6 73 69q49 74 107 177l92 170q13 19 26 39.5t19.5 31t9.5 13.5l9 -132l6 -49q4 -18 14 -39q-4 0 -6 -2q-8 -5 -2 -14q21 -27 63 -27q31 0 33 2q111 15 340 156q-75 -143 -276 -536h-2 q-11 0 -11 -11q0 -20 -2 -22v-13q0 -10 2 -12l6 -18l11 -11q16 -8 39 -8q26 0 61 27q23 17 80 111q135 230 207 399q51 107 51 156q0 32 -27 79q-3 10 -12 7q-9 12 -31 12q-17 0 -35 -6l-61 -23q-56 -21 -172 -74l-149 -69q0 143 -13 239q-15 91 -59 123q-2 2 -6 2 q-6 0 -9.5 -4.5t-1.5 -9.5l-6 4l8 10l11 21q2 2 2 16q0 21 -15 33l-4 2q0 333 23 535v2q0 12 -12 12q-13 0 -13 -10q-22 -203 -22 -531q-29 -3 -41 -31l-4 -20q0 -29 26 -43l-10 -8l-16 -21l-45 -63l-123 -197l-103 -168l-69 -112q-43 -71 -47 -74q-6 -9 -6 -21zM203 322 q6 2 18 14l221 358l121 195l2 2l2 -72q-23 -23 -45 -59l-53 -94l-66 -119q-50 -89 -94 -160q-23 -37 -41 -53q-14 -20 -30 -23h-7q-16 0 -24 8zM567 1065q0 10 7.5 18.5t15.5 8.5h2q2 -2 6 -2h2q6 -6 6 -17v-6h-2q0 -20 -20 -20h-4q-13 7 -13 18zM612 561l19 -4h4l4 2h4l2 2 l6 2l15 6l55 27l166 78l168 71l6 3l-14 -25q-123 -78 -230 -129q-77 -33 -133 -43q-2 -2 -29 -2q-28 0 -43 12zM627 1014q35 -35 47 -119q10 -120 10 -229l-29 -15v15l-14 268q-2 2 -2 24q0 21 -2 23t-2 16q-2 2 -2 7l-2 4zM760 92l4 -2l18 -4q23 0 33 23q220 438 315 604 l5 6l16 29q9 18 12 30q0 2 2 2q6 -12 6 -30l-2 -21q-6 -54 -89 -227t-162 -297q-48 -79 -76 -107q-20 -20 -47 -20l-33 4zM1114 766q2 2 6 2l4 -2h-10z" />
<glyph unicode="n" horiz-adv-x="1169" d="M84 291q0 -10 6 -19h-2q-5 -8 0 -16q33 -33 70 -33q69 0 125 103l30 57l25 51q48 81 117 168.5t118 128.5l-24 -129q-5 -38 -19 -94l-8 -47l-26 -133l-15 -74q-3 -20 -12 -55l-4 -9q-20 -26 -23 -65l4 -14q36 -45 86 -45q30 0 43 8q31 19 95 78l157 155q213 213 244 260 l45 86l2 4v2q12 9 12 27q0 17 -10.5 28t-27.5 11q-18 0 -27 -12q-103 -99 -313 -289l-93 -82l35 270q17 180 17 201q0 59 -13 92q-8 18 -26 29l-21 6q13 20 13 35q0 23 -21 41l-12 6q0 82 8 123l6 67l4 103q0 49 -2 53l-2 150q0 100 8 127v2q0 12 -12 12t-12 -10 q-11 -86 -11 -113q0 -62 3 -68l4 -151q0 -35 -7 -103l-4 -67l-8 -117q-2 2 -14 2q-11 0 -14 -6q-17 -24 -17 -41q0 -18 11.5 -33t25.5 -20l-6 -6q-8 -8 -14 -23l-7 -12v-2q-15 -18 -53 -53q-40 -37 -59 -60l-74 -84l-82 -98l-143 -188l-68 -91q-8 -8 -8 -24zM127 254 q20 4 27 16l67 88l76 101l145 180l74 84l55 55l11 8l-4 -24q-49 -37 -124.5 -130t-131.5 -186q-17 -29 -27 -53l-31 -57q-35 -66 -76 -84q-15 -6 -28 -6q-20 0 -33 8zM463 123v2q0 10 2 12q12 -18 35 -18l16 4l12 6l23 16l65 54l187 168l276 251q-17 -32 -24 -38 q-47 -63 -242 -258l-156 -154l-59 -53q-29 -27 -68 -27q-40 0 -67 35zM561 254l29 141l37 193q8 40 32 203l9 71v29q-3 19 -11 27q4 0 7 -3q8 -3 14 -18q12 -27 12 -86q0 -23 -16 -197l-37 -292l-72 -64zM586 987q0 13 8 21q6 0 8 -2h4q0 -13 12 -13l9 4l2 -2q8 -5 8 -10 l-6 -6q-12 -21 -23 -25q-5 0 -12 7q-10 17 -10 26z" />
<glyph unicode="o" horiz-adv-x="1191" d="M315 743q0 -159 97 -270q-8 -5 -2 -14q71 -95 182 -129q87 -17 119 -17q89 0 171.5 32t143.5 91q121 112 121 277q0 129 -57 258q-3 11 -33 76q-43 97 -91 140q-46 42 -105 42h-3q1 0 -4.5 2t-19 5.5t-31.5 8.5q10 17 10 33q0 32 -22 41q-9 6 -19 6v320q0 12 -12 12 t-12 -12v-322q-39 -12 -39 -39q0 -15 12 -27l2 -2h-10q-15 0 -23 -8q-167 -43 -268 -180q-107 -155 -107 -324zM395 735q0 156 89 279t229 160q-74 -35 -139 -119.5t-97 -188.5q-31 -85 -31 -174q0 -134 68 -205q-21 15 -39 33q-80 83 -80 215zM465 426q97 -66 227 -66l72 5 q164 23 259 139.5t95 290.5q8 -24 8 -88q0 -55 -8 -76q-25 -103 -104.5 -178.5t-196.5 -106.5q-49 -12 -102 -12q-152 0 -250 92zM465 696q0 94 41 197q43 107 118 186.5t154 91.5q114 -24 188 -124t74 -252q0 -158 -85.5 -257.5t-256.5 -99.5q-50 0 -116 17q0 5 -7 8 q-53 30 -81.5 91t-28.5 142zM733 1284q0 6 15 12v-6q0 -12 12 -12t12 12v10q4 0 6 -2q8 -8 8 -20l-4 -18q-2 2 -16 2q-10 0 -12 -2q-21 15 -21 24z" />
<glyph unicode="p" horiz-adv-x="720" d="M8 807q0 -16 11 -26.5t26 -12.5l100 -188q57 -105 79.5 -151t74.5 -165l16 -39q43 -99 72 -155q15 -21 37 -21l16 4l4 2h2q60 0 60 56q0 44 -33 106l-27 55q-28 54 -43 95q-3 13 0 16q3 6 27 16l37 19q97 67 152 154.5t55 172.5q0 65 -33 115q-14 36 -47 62 q-79 73 -211 73q20 17 23 37v4q0 19 -12 31t-32 12q0 71 3 80l8 107l6 98q2 8 2 109q0 131 -14 172q-3 8 -13 8q-4 0 -8 -4t-4 -9v-4q16 -69 16 -155l-4 -115l-6 -100l-8 -111q-2 -6 -2 -80v-2q-19 -9 -19 -31q0 -12 6.5 -24t14.5 -17l4 -2q-2 -2 -2 -6q-178 -15 -322 -159 q-12 -9 -12 -27zM111 811q71 62 151 88q-92 -41 -92 -98q0 -3 10 -45q11 -29 49 -84l27 -39q50 -65 63 -146l-22 -12l-6 -4l-19 37l-59 110zM190 801q0 24 21 45q42 37 186 72q82 -5 134.5 -44.5t52.5 -99.5q0 -34 -15 -61q-49 -110 -231 -215q-15 71 -66 145l-26 41l-29 45 q-27 41 -27 72zM324 401q2 2 6 2l4 3q240 124 305 276q9 15 12 31q-3 -33 -18 -68q-52 -123 -178 -211l-33 -16q-23 -10 -31 -18.5t-8 -22.5q0 -15 2 -17q4 -18 18 -51l46 -88q36 -73 36 -110q0 -32 -26 -35q2 2 2 14l-4 16q-23 39 -70 150l-22 51l-17 39zM342 1042 q0 13 16 13l21 -4q2 -2 2 -9q0 -9 -6 -18h-2q-5 -3 -12 -3q-4 0 -9 1q-10 10 -10 20z" />
<glyph unicode="q" horiz-adv-x="1044" d="M154 504q0 -163 97 -263t253 -100q38 0 82 6l18 -141q9 -35 37 -35q14 0 23 6l30 -4q43 0 43 52l-2 18l-4 31q-8 21 -8 47q0 14 4 18q20 20 59 43q51 26 70 45q143 149 143 328q0 120 -71 223q-37 99 -113 153t-178 54q-33 0 -70 -6q13 23 13 41q0 31 -35 37q0 107 8 178 q8 93 8 199q0 112 -18 204q0 11 -13 11q-12 0 -12 -13v-2q19 -84 19 -176q0 -142 -9 -221q-8 -71 -8 -182q-13 -1 -23 -19t-10 -39q0 -24 13 -34l-11 -5q-15 -3 -20 -16q-141 -50 -228 -170.5t-87 -267.5zM229 502q0 135 87 241.5t223 137.5q-92 -42 -160.5 -128t-93.5 -186 q-11 -72 -11 -94q0 -96 47 -162.5t130 -89.5q-66 9 -113 47q-109 77 -109 234zM295 473q0 25 10 90q32 137 143 233t250 103q35 -8 74 -35q109 -83 109 -258q0 -109 -49.5 -202t-133.5 -140q-2 2 -8 43q-6 52 -20 74t-43 22q-20 0 -33 -8h-8q-12 -2 -22.5 -15t-10.5 -26v-4 l20 -127q-2 -2 -22 -2q0 10 -10 10q-115 0 -180.5 65.5t-65.5 176.5zM512 993v8q0 10 6 19l6 10l8 -4q8 0 11 6l8 -4l4 -8v-6q0 -9 -6 -21q-6 0 -10 -4q-12 -12 -19 -12q-5 0 -8 16zM569 893l6 8l29 4zM621 381q8 3 14 0q12 -3 22 -23q8 -24 13 -55l8 -49l-29 -12l-18 120 q-5 14 -10 19zM662 164q92 29 162.5 99.5t107.5 168.5q29 98 29 170l-5 66l-4 26q25 -67 25 -135q0 -85 -35.5 -167t-101.5 -148q-15 -15 -64 -43q-44 -25 -59 -41t-15 -39q0 -18 3 -21l6 -30l4 -31q2 -2 2 -21q0 -24 -21 -24q-16 0 -18 2l4 18z" />
<glyph unicode="r" horiz-adv-x="1083" d="M201 614q0 -25 22 -34q24 -17 43 -17q23 0 43 33q4 7 15.5 25t24 38t24.5 41l43 76q8 13 18.5 31t11.5 20q2 4 4.5 8.5t4 7t2.5 3.5l8 -12l55 -78l103 -160q76 -122 122 -207q11 -20 33 -20q13 0 15 2q2 -7 8 -7q2 0 4 1q24 3 39 12q12 11 24.5 40t12.5 48q0 56 -66 147 q-18 27 -49 58l-57 63l-41 41h10q2 -2 18 -2h60q4 -2 47 -2q95 0 166 74q31 31 51 77.5t20 84.5q0 55 -39 106q-26 51 -63 88q-102 111 -223 152q6 6 5 18q0 18 -18 37l5 8v225q0 13 -13 13q-12 0 -12 -13v-223q-8 0 -10 -2q-17 -17 -17 -35q0 -14 2 -16q-15 -3 -26 -21 l-4 -8q-61 -121 -213 -344q-158 -237 -209 -362zM262 584q9 6 12 16q55 124 158 279l2 -2l10 -15l-28 -45l-31 -51l-31 -55l-53 -88l-22 -29l-11 -10h-6zM479 950q147 213 207 330q20 -7 59 -27q-4 0 -6 -2q-43 -12 -82.5 -61.5t-83.5 -147.5l-51 -104l-2 -10l-33 18z M532 922l7 4l53 108q83 176 153 199q2 2 25 2h6q81 -52 127.5 -108t46.5 -105q0 -65 -78.5 -97t-209.5 -32q-58 0 -130 29zM565 827l35 -8l74 -4q99 0 181.5 23.5t123.5 64.5q19 19 27 37v-4q-37 -93 -127 -131q-25 -14 -76 -14q-41 0 -45 2h-62q-16 0 -18 2h-23q-6 0 -8 -2 h-6l-6 -9v-4q0 -7 10 -14l6 -4l2 -2q6 -10 39 -43l62 -62l45 -55q59 -83 59 -135q0 -18 -8 -37q-8 -22 -13.5 -28.5t-23.5 -12.5q6 12 6 23l-4 16q-9 17 -127 209l-102 162zM680 1378q0 9 4 13q5 -5 8 -10t4 -9v-3v-1l-8 -4q-8 5 -8 14z" />
<glyph unicode="s" horiz-adv-x="976" d="M199 272q0 -74 41 -118q42 -45 141 -75t223 -30q215 0 291 88q35 47 35 94q0 37 -8 50v12q0 44 -19 86q-35 80 -155 151q-75 41 -105 56l-96 49q-98 49 -107 88q-2 2 -2 18q0 35 31 50q30 12 100 12q60 0 64 -2l69 -2q48 0 86 10q27 9 27 39q0 23 -14 43q-3 6 -8 6l-7 6 q-71 47 -186 47v4q-4 11 -12 11l4 34q0 34 -17 37l7 203l4 94l4 84l6 215q0 13 -12 13q-13 0 -13 -13l-6 -215l-4 -84l-4 -98l-6 -197l-4 -2q-4 0 -6 -2q-16 -7 -25.5 -21.5t-9.5 -29.5q0 -24 24 -39l-36 -6q-95 -20 -151 -71t-60 -122q0 -47 20.5 -78.5t75.5 -70.5 q50 -40 170 -109l63 -38q140 -83 193 -136q47 -47 47 -84q0 -46 -67.5 -74t-172.5 -28q-113 0 -215 31q4 11 -6 14q-25 11 -37.5 35t-19.5 78q-8 50 -22.5 73t-43.5 27q-10 10 -26 10q-17 0 -28 -11t-11 -28l-2 -37q-2 -4 -2 -47zM276 272q0 37 3 43q2 4 2 41v2 q10 -3 16 -16q6 -9 16 -61q8 -49 19 -74q10 -23 20 -33q-46 21 -61 39.5t-15 58.5zM360 741q3 42 41 74q70 55 199 55q98 0 141 -32q9 -9 25 -9q15 0 29 17l-2 -4q-3 -14 -25 -17q-18 -6 -68 -6l-67 2q-4 2 -66 2q-83 0 -116 -17.5t-33 -64.5q0 -20 2 -22q12 -48 117 -103 l98 -49q91 -48 102 -55q113 -67 148 -141q10 -28 14 -49q-9 13 -39 47q-56 56 -207 147l-213 131q-40 32 -63 58q-17 24 -17 36zM530 985q0 11 9.5 21t17.5 10q12 0 12 -17q0 -25 -8 -38q-12 0 -14 2q-17 10 -17 22z" />
<glyph unicode="t" horiz-adv-x="970" d="M115 788q0 -16 12 -28v-2q12 -31 51 -31q38 0 96 25q54 22 160 82q66 40 82 43l4 2q172 -370 246 -580q7 -18 20 -23l17 -4q39 0 39 37v4q24 41 24 88q0 89 -75 224l-17 30q-7 17 -31 56q-58 96 -77 145q-21 40 -21 82q0 27 29 43q37 21 117 45q59 19 104 47q31 22 31 53 q0 27 -11.5 46.5t-31.5 19.5l-17 -4q-133 -60 -325 -160q2 2 2 6q0 13 -13 13q-6 0 -10 -7q-13 29 -35 29q0 132 9 285l4 137q0 87 -6 154q0 12 -13 12q-12 0 -12 -12q6 -68 6 -154l-4 -137q-8 -139 -8 -289l-8 -4q-17 -14 -17 -31q0 -24 23 -37l6 -4l-328 -166 q-22 -9 -22 -35zM160 750q2 2 6 2l334 168l12 -23h-4l-84 -45q-95 -54 -141 -74q-65 -23 -86 -28l-21 -2zM461 1028q0 5 7 12t13 7q15 0 15 -15l-4 -16l-3 -2q0 -2 -2 -2q-6 0 -16 2q-10 10 -10 14zM569 956q262 131 330 162l4 2q-3 -20 -24 -35q-32 -21 -95 -41 q-95 -32 -129 -51q-30 -15 -30 -55q0 -47 20 -88q25 -54 80 -150l47 -84q58 -108 70 -170l4 -40q0 -37 -12 -64q-68 193 -265 614z" />
<glyph unicode="u" horiz-adv-x="931" d="M70 618q0 142 180 322l69 68l54 49l28 28q-34 15 -34 39q0 9 2 11q3 11 12 20v2q0 80 -14 244l-5 100q0 99 15 146q3 10 12 10q12 0 12 -12v-3q-14 -41 -14 -141l4 -98l15 -236q2 2 10 2q12 0 20 -8.5t10 -21.5q3 -3 0 -6q47 44 80 67q17 10 25 10q13 0 27 -14l8 -6 q12 -34 12 -57q0 -25 -11 -45.5t-40 -51.5l-35 -32q-25 -22 -31 -31q-136 -136 -196 -225q-56 -86 -56 -164q0 -83 62 -121q10 -5 8 -12t-10 -7l30 -4h9q72 9 239 185l138 153l98 113q9 12 26 12t27 -10q9 3 12 0q19 -16 19 -41q0 -36 -41 -107q-62 -101 -174.5 -205 t-214.5 -153q-79 -29 -109 -29l-33 4q-46 0 -96.5 25.5t-83.5 63.5q-65 77 -65 167zM150 618q0 -59 35.5 -106t93.5 -66q-70 43 -70 138q0 84 57.5 174t198.5 231q48 38 81.5 79t33.5 65q0 10 -2 12l-7 -6q-24 -18 -47 -41l-51 -49l-47 -50l-55 -51l-68 -63 q-153 -153 -153 -267zM391 1126q0 -4 4 -8q3 -7 17 -10q10 10 10 22v7q0 6 -2 6h-2q-8 0 -17.5 -5.5t-9.5 -11.5zM430 399l16 7q97 47 210 151t171 199q30 51 35 78q2 2 2 10l-4 -6l-100 -113l-135 -154q-61 -66 -148 -137z" />
<glyph unicode="v" horiz-adv-x="1038" d="M268 1061q28 -117 62 -330q12 -70 26 -151.5t20.5 -122t10.5 -58.5q2 -2 2 -18q0 -29 2 -31q3 -58 53 -67q17 -17 39 -17q17 0 19 2q27 9 108 90q149 159 264 303.5t121 194.5q0 4 -2 6q-2 14 -12.5 24.5t-26.5 10.5q-17 0 -26 -12q-217 -211 -398 -418l-24 -33 q-7 86 -35 264.5t-45 253.5l-14 70q-6 28 -13 39q-20 44 -61 44q-7 0 -14 -1q-2 2 -7 2l25 6q4 0 6 2q12 9 14 16l3 9q0 12 -14.5 25.5t-26.5 15.5l4 237l4 240q0 12 -13 12q-12 0 -12 -12l-4 -242l-4 -239q-10 -3 -10 -23q0 -14 10 -31v-4q0 -7 6 -10h-6q-31 -9 -31 -41v-6 zM313 1153q4 0 6 2q6 -2 12.5 -7t6.5 -9l-2 -2h-17q-6 6 -6 16zM346 1079q0 2 1 3h2q2 0 5 -1q17 -6 24 -18t15 -45l15 -68q68 -396 77 -518q0 -10 11 -10h2q-11 -19 -19 -27l-12 -16v4q0 31 -2 33q-26 127 -39 215l-12 63l-8 51zM475 287q26 10 68 63l28 41l17 27 q120 138 346 364l-27 -37q-61 -85 -150 -191t-161 -181l-61 -60q-26 -20 -37 -24h-13z" />
<glyph unicode="w" horiz-adv-x="1282" d="M231 799l5 119q2 14 12 24t26 10h5l14 -4l12 -2q2 -2 14 -2q21 -12 27 -18q21 -27 21 -166v-86l-2 -176q0 -50 2 -54v-26l61 45q93 63 100 65q29 16 50 19q2 2 8 2q-10 3 -13 12q-8 13 -8 31q0 13 8 24t19 13q0 110 -4 700l-13 152l-4 86l4 67q0 11 13 11q12 0 12 -13v-2 l-4 -63l4 -84l12 -154q4 -610 4 -698q31 -6 31 -27q0 -17 -14 -31l6 -6q3 -12 -8 -16l-4 -2h-9q-2 -2 -6 -2q12 -3 25 -15l8 -10q68 -16 94 -112l17 -62l6 -24l125 116l278 273q14 14 25 14q7 0 24 -10q0 10 11 10q10 0 10 -10q0 -94 -64 -170q-76 -92 -227 -219 q-55 -50 -141 -109q-25 -19 -55 -26l-27 -5h-6q-17 0 -19 2q-32 9 -47 48q-20 42 -37 114q0 22 -8 41l-10 49l-2 2l-60 -57q-104 -104 -165 -115l-27 -4q-25 0 -55 23q-8 8 -2 14l-9 4q-10 8 -14 15l-4 6q0 4 -2 6v8q-2 2 -2 16v2l-4 50q-17 272 -17 387zM301 303 q20 -14 41 -14q35 0 74.5 26t101.5 88l31 31q16 12 33 29l4 2v4l-21 -8q-26 -15 -92 -62l-96 -67q-50 -29 -76 -29zM309 795q0 -107 17 -379l2 -23l8 4l10 9v26q-2 4 -2 57l2 185q2 6 2 90q0 88 -2 98q-3 31 -16 51q-2 7 -17 11h-2q2 -2 2 -15zM590 590l4 -15q27 15 27 27 l-9 4h-4q-18 0 -18 -16zM657 496l19 -62l6 -33l6 -30l25 -82q0 -6 2 -8l30 26l-10 35q-19 79 -33.5 108t-44.5 46zM768 223l25 15q45 25 137 104q139 118 223 215q33 42 47 84l-260 -256l-139 -133z" />
<glyph unicode="x" horiz-adv-x="1073" d="M133 338q0 -25 23 -35l4 -6q24 -18 63 -18q61 0 158 40.5t197 108.5l4 6l133 -356q9 -27 37 -27q10 0 12 2l8 4q32 -1 49 15.5t15 48.5q0 32 -41 141l-37 78q-45 91 -56 129l-4 20l2 11q10 24 48 45q26 18 126 61q88 40 119 66q33 26 33 65q0 11 -10 11q-3 0 -6 -3 q-9 27 -37 27q-10 0 -12 -2l-62 -22q-65 -27 -121 -62l-116 -70q-11 76 -72 232q-65 145 -133 174v4q18 15 18 37q0 24 -22 33l-7 4q0 84 -12 266t-12 270q0 13 -12 13q-13 0 -13 -13q0 -75 13 -272q12 -182 12 -262q-14 -6 -14 -25l4 -20l-4 -2q-12 -1 -20.5 -13t-8.5 -24 q0 -8 2 -10q63 -209 158 -461q-194 -103 -381 -172q-25 -13 -25 -37zM193 303q161 59 372 170l13 -29q-6 3 -13 0q-105 -68 -198 -108q-74 -27 -115 -35l-29 -2zM432 1075v4l8 -4q11 -7 11 -14l-2 -8l-5 -6l-4 4q0 4 -2 6q-6 9 -6 18zM465 993q20 -11 43 -41q30 -40 63 -114 q61 -139 70 -230v-4l-35 -18q-91 235 -141 407zM635 512l115 66l61 36l53 29q47 28 121 53l4 2q-10 -14 -24 -22q-16 -12 -99 -51q-79 -34 -133 -64q-37 -21 -53 -53q-2 -2 -2 -16l4 -27q8 -34 57 -133l37 -78q38 -77 41 -133q0 -25 -10 -35q-4 -4 -19 -8q3 12 0 24z" />
<glyph unicode="y" horiz-adv-x="1157" d="M305 1221q0 -10 6 -19l11 -6q-3 -3 -3 -14q14 -71 66 -260l45 -138l41 -120l2 -5q-12 -23 -53 -122q-69 -176 -82 -203l-4 -19q0 -16 10 -26l-4 -6q-6 -10 4 -13q33 -20 55 -20q19 0 31 12q52 52 105 191l79 200q20 39 74 70q65 36 170 84l107 49q54 26 92.5 59t50.5 62 q2 3 2 6q0 4 -6 6v2q0 17 -2 19q-9 24 -37 24q-12 0 -14 -2q-81 -30 -211.5 -95t-216.5 -120l-60 -41q-51 195 -67 248q-22 75 -52 137l-36 58l4 16q-3 29 -29 35l4 188q2 16 2 189q0 12 -12 12t-12 -12q0 -167 -3 -191l-4 -188q-14 -4 -24 -11q-29 -16 -29 -36zM330 1221 q2 8 16.5 16t26.5 8h2q7 0 10 -8l-2 2q-11 4 -14 -6v-8h-11q-15 0 -24 -6q-4 0 -4 2zM377 276q22 3 31 21q22 42 84 211q51 128 88 178q16 19 84 64q74 50 197.5 112.5t209.5 93.5q-50 -56 -221 -131q-103 -44 -150 -71q-53 -30 -75 -52.5t-39 -64.5q-19 -40 -72 -178 q-50 -133 -100 -180q-7 -7 -17 -7q-16 0 -20 4zM395 1200q21 -24 31 -47q40 -86 100 -322l19 -67v-2l-19 -19q-108 320 -129 451q-2 2 -2 6z" />
<glyph unicode="z" horiz-adv-x="1009" d="M47 817q0 -8 8 -16l11 -17q17 -24 24 -26l16 -4q21 0 23 2l61 12q60 15 172 47l263 84l-4 -8q-44 -59 -103 -160q-69 -115 -96.5 -155t-83.5 -103l-82 -106q-1 0 -6 -5l-10 -12q-15 -15 -15 -41q0 -25 19.5 -41.5t54.5 -17.5q32 -19 107 -19q90 0 215 25q119 24 205.5 57 t117.5 64q21 12 21 31q0 16 -14 28.5t-29 12.5q-36 -2 -187 -27l-80 -14q-66 -12 -190 -43l-8 -3l-35 -10l82 107q63 78 92 118t76 115q84 135 108 266l17 9q16 16 16 37q0 19 -13 33t-30 14q-8 0 -25 -7l-14 -4l-6 -4q-36 -36 -90 -39q11 11 16 21l2 4q5 5 2 10 q0 29 -26 39v4q0 322 -25 578q0 10 -12 10t-12 -12v-2q24 -243 24 -574v-4q-39 -14 -39 -47q0 -20 21 -29l-29 -6q-27 -9 -149 -41q-253 -65 -318 -67q-14 -1 -25.5 -13t-11.5 -24v-4q0 -11 2 -13l-4 -2zM76 807l18 -4q116 12 336 71l143 41q74 19 78 21l-6 -10 q-73 -21 -125 -39l-164 -51q-95 -35 -170 -50l-61 -10q-2 -2 -19 -2h-8l-16 21zM326 330l73 96q63 75 91 115t94 151q132 212 174 254q-12 -58 -53 -145q-44 -91 -82.5 -150.5t-126.5 -171.5l-107 -135l-31 -8zM350 256l23 4l71 19l19 6l14 4q6 0 8 2q50 14 183 39l75 16 q93 20 158 23q-37 -22 -70 -33q-79 -32 -191.5 -55.5t-205.5 -28.5h-24zM592 1024v2q0 8 8.5 16.5t15.5 8.5q4 0 8.5 -6.5t4.5 -12.5v-4q-8 -14 -21 -14q-16 0 -16 10z" />
<glyph unicode="&#xad;" d="M252 487l4 9l4 2q-2 2 -2 12v4q0 12 11.5 24t25.5 13q120 8 291 59l24 6l15 5q2 2 4 0l4 2q-21 9 -21 28q0 33 39 47v4q0 331 -24 574v2q0 12 12 12t12 -10q25 -256 25 -578v-4q26 -10 26 -39q3 -5 -2 -10l-2 -4q-4 -8 -16 -20l55 18q136 42 193 64l6 4l14 4q15 6 25 6 q17 0 30 -14t13 -33q0 -20 -17 -37l-16 -8l-156 -60l-262 -84q-112 -32 -172 -47l-61 -12q-2 -2 -23 -2l-16 4q-8 2 -25 27l-10 16q-8 8 -8 16zM281 477l6 -12l16 -21h8q17 0 19 2l61 11q81 17 170 49l164 51q52 18 125 39l6 10l-78 -20l-143 -41q-226 -61 -336 -72z M639 651q0 -10 16 -10q8 0 14.5 5.5t6.5 12.5q0 19 -12 19q-8 0 -16.5 -9t-8.5 -16v-2z" />
<glyph unicode="&#xe0;" d="M123 246q0 10 6 22l8 8q96 90 385 336q-2 0 -14 4l-10 2q-25 22 -25 46q0 19 19 38v3q0 12 34 12q2 23 2 119q0 102 2 131q9 444 15 624q0 11 12 11t12 -13q-4 -110 -14 -624q-2 -29 -2 -131q0 -98 -2 -121l14 -6q25 -19 25 -39l219 180q4 4 6 4l16 12l11 2h16 q39 0 68 -16q14 -11 16 -14q1 -4 4.5 -9t3.5 -6q4 -4 4 -10v-41l-14 -96q-39 -267 -98 -555q-6 -53 -21 -96l-8 -25l-4 -10l-4 -8q-27 -21 -76 -21q-35 0 -41 2t-9 6.5t1 9.5q0 8 12 5l6 -2q-17 17 -14 40q9 39 18 121q-2 -2 -2 0h-4q-80 46 -184.5 79.5t-189.5 39.5l-7 2 q-8 0 -32 -24l-17 -19l-22 -24q-27 -27 -49 -27q-12 0 -25 8q-20 10 -37 43l-2 4q-8 8 -8 23zM164 209q6 -10 16 -16l13 -5q13 0 36 23l21 22l22 23q30 30 52 27q101 -14 208.5 -48t174.5 -75l2 20l4 35l-19 2q-152 47 -375 121l-131 -117q-9 -12 -24 -12zM387 397l59 -20 l226 196q76 63 106 84l13 76q-327 -270 -404 -336zM469 371q88 -31 246 -80q4 0 6 -2l6 55q30 212 45 283l-94 -76zM500 668q0 -31 24 -31h4v55q-25 -3 -28 -24zM553 647q2 2 6 2q6 9 6 19q0 11 -10 18h-2q2 -4 2 -18q-2 -4 -2 -21zM719 1151l4 14q-4 4 -4 6q0 9 2 11l4 6 q5 5 20 31q7 10 36 19.5t34 4.5l10 -2h9l14 -6l8 -4q0 10 2 12t2 6l10 17q3 9 7 7l2 -3q7 10 10 10h10l23 -4l18 348l14 2l-16 -356q14 -14 14 -35q0 -22 -37 -33q21 -15 21 -31q0 -13 -23 -26l-6 -6q-26 -12 -26 -25l-2 -4q1 0 3.5 -2t2.5 -4q3 -6 12 -12l12 -15l21 -6 l33 -12q47 -12 81 -12l37 4q0 -2 2 0q10 10 17 6q6 0 11 -5t5 -12q0 -8 -8 -16q-15 -18 -39 -27l-14 -6q-2 -2 -35 -2q-137 0 -238 64q-54 36 -57 73q-6 15 -6 25zM743 -20q21 2 48 14v2q2 2 2 6l8 29l22 92q81 397 99 555l10 94l2 31v6l2 2l-25 25l-6 2l-22 -2v-15 q-9 -71 -39 -237q-37 -222 -51 -355l-7 -57q-10 -88 -24 -170l-6 -10q-2 -5 -13 -12zM748 1143q2 4 8 10l-4 6zM811 1217h4l-2 2zM852 1092l4 -2l2 -3v5l-2 2zM872 1073h5l-5 2q2 -2 0 -2zM881 1229q6 -6 6 -10q5 5 12 2q26 3 29 6l4 4q0 24 -29 24h-6l-2 -4l-12 -18z M887 1157q6 0 14 8zM1012 1018l8 2h-6zM1055 1024q6 0 2 -4v-2l2 4l10 4z" />
<glyph unicode="&#xe8;" d="M150 313q0 32 26 58l17 14q16 16 16 18l106 183l33 57l37 64q-31 12 -31 47q0 24 21 39q-16 80 -28.5 201.5t-14.5 195.5q-2 27 -2 205v190q0 12 12 12t12 -12v-135q0 -458 43 -651l29 -4l6 -7l60 95l8 8l-4 16q0 17 10 28t24 11q3 0 19 -4q-2 2 -2 6q0 13 10 13h4 q119 -49 266 -156q86 -68 107 -111q8 -13 8 -32q0 -42 -59 -66q-9 -3 -13 4q-13 3 -20 10q-108 102 -238 195l-59 -86l-41 -62q-10 -13 -12 -20l-4 -4h2l10 -6q13 -10 41 -19q108 -45 145 -65q36 -20 51 -58l5 -20q0 -29 -35 -59l-2 -5q-9 -22 -33 -22l-18 4q-93 50 -158 90 l-66 41q-19 -40 -104 -154l-4 -6l-4 -2l16 -8l49 -14q83 -21 150 -51q49 -20 65 -62l4 -27q0 -25 -22 -61q-3 -26 -31 -35h-6q-19 0 -27 8q-17 13 -67 37l-269 121l-12 6l-6 2l-4 4q-16 12 -16 41zM240 322l252 -113q70 -34 81 -45l7 -8q10 33 10 37l-4 18q-17 31 -56 51 q-58 24 -145 47l-49 15q-33 14 -33 28q0 7 6 13l8 8q85 117 105 151l-39 21q-61 -107 -109 -183q-13 -21 -34 -40zM379 754q0 -16 18 -25l19 31l-13 4q-7 2 -10 8q-4 0 -6 -2q-6 -3 -8 -10v-6zM420 612q70 -36 125 -73l149 -86q16 -6 19 -19q14 14 14 33q0 36 -45 59 q-44 23 -141 62q-44 14 -54 24q-12 9 -12 21q0 6 2 8l4 6l6 12l9 11l41 59l59 88l-37 27l-2 -2q-44 -72 -137 -230zM557 938q178 -116 346 -270q9 -9 12 -25l3 4l4 15q0 10 -7 24q-19 43 -100 102q-114 80 -258 150zM764 1112l4 14q-4 4 -4 7q0 8 2 10l4 6q8 8 21 31 q7 10 35.5 19.5t33.5 4.5l10 -2h9l14 -6l8 -4q0 10 2 12t2 6l10 17q3 9 7 7l2 -3q7 10 10 10h10l23 -4l18 348l14 2l-16 -356q14 -14 14 -35q0 -12 -8 -19.5t-28 -13.5q20 -14 20 -30q0 -14 -23 -27l-6 -6q-26 -12 -26 -25l-2 -4q2 0 4 -2.5t2 -3.5q3 -6 12 -12l12 -15 l21 -6l33 -12q46 -12 82 -12l36 4q0 -2 2 0q10 10 17 6q6 0 11 -5t5 -12q0 -8 -8 -16q-15 -18 -39 -27l-14 -6q-2 -2 -35 -2q-137 0 -238 64q-54 36 -57 73q-6 15 -6 25zM793 1104q2 4 8 10l-4 6zM856 1178h4l-2 2zM897 1053l4 -2l2 -2v4l-2 2zM918 1034h4l-4 2q2 -2 0 -2z M926 1190q6 -6 6 -10q5 5 12 2q26 3 29 6l4 4q0 25 -29 25h-6l-2 -5l-12 -18zM932 1118q6 0 14 8zM1057 979l8 2h-6zM1100 985q6 0 2 -4v-2l2 4l10 4z" />
<glyph unicode="&#xe9;" d="M141 332q0 -28 17 -41l4 -4l6 -2l12 -6l269 -121q50 -24 67 -37q8 -8 27 -8h6q28 9 31 34q22 36 22 62l-4 27q-15 41 -66 61q-69 31 -149 51l-49 14l-17 9l5 2l4 6q86 116 104 153l66 -40q83 -52 157 -91l19 -4q23 0 33 23l2 4q34 30 34 59l-4 21q-15 37 -51 57 q-46 25 -145 66q-31 10 -41 18l-11 6h-2l5 4q3 9 12 21l41 61l59 86q135 -96 238 -194q8 -8 20 -11q3 -7 12 -4q60 25 60 66q0 20 -8 33q-20 41 -107 110q-147 107 -266 156h-4q-10 0 -10 -12q0 -4 2 -6l-19 4q-14 0 -24.5 -11t-10.5 -28l5 -17l-9 -8l-59 -94l-6 6l-29 4 q-43 193 -43 651v136q0 12 -12 12t-12 -12v-191q0 -178 2 -205q2 -74 14.5 -195.5t28.5 -201.5q-21 -15 -21 -39q0 -35 31 -47l-37 -63l-33 -58l-106 -182q0 -2 -17 -19l-16 -14q-27 -27 -27 -57zM231 340q34 39 35 41q54 85 109 182l39 -20q-23 -39 -105 -152l-8 -8 q-6 -6 -6 -12q0 -15 33 -29l49 -14q87 -23 145 -47q38 -20 56 -52l4 -18l-11 -37l-6 8q-6 8 -82 45zM371 772v6q2 7 8 10q3 3 6 3q3 -7 10 -9l13 -4l-19 -30q-18 9 -18 24zM412 631q74 126 137 229l2 2l37 -26l-60 -88l-41 -60l-8 -10l-6 -12l-4 -7q-2 -2 -2 -8 q0 -11 12 -20q12 -12 53 -25q110 -44 142 -61q45 -23 45 -60q0 -18 -14 -32q-3 12 -19 18l-149 86q-61 41 -125 74zM549 956q149 -73 258 -149q81 -59 100 -102q6 -12 6 -25l-4 -14l-2 -4q-3 15 -12 24q-168 154 -346 270zM756 1020q0 -8 8 -16q15 -18 39 -27l14 -6 q2 -2 35 -2q55 0 115 14q75 14 125.5 47.5t54.5 75.5q6 15 6 24l-4 15q5 3 2 12l-4 10q-8 8 -21 31q-7 10 -35.5 20t-33.5 5l-8 -2q-15 0 -25 -7l-25 -10q-9 -3 -14 -8l-10 -6l-12 24l16 357l-14 -2l-19 -348l-22 4h-11q-3 0 -10 -11q-3 8 -7 -2q-1 -1 -1 -2l-10 -16 q0 -4 -2 -6t-2 -10q0 -9 4 -13q7 -7 21 -14.5t20 -7.5l12 2q4 -11 20 -21l7 -6q26 -12 26 -24l2 -4q-1 0 -3.5 -2.5t-2.5 -4.5l-10 -12q-8 -6 -14 -14l-19 -6l-35 -13q-47 -12 -82 -12l-36 4q0 -3 -3 0q-8 8 -14 8q-18 0 -18 -18zM803 1006l14 -2q-2 0 -2.5 -2t0.5 -3v-2 l-2 4zM852 999h6l2 -2zM905 1178l2 4l13 18l2 4h6q28 0 28 -20v-4l-8 -6l-24 -5q-7 4 -13 -2q0 5 -6 11zM971 1145l14 -8q-6 0 -14 8zM995 1053l4 2q-2 -2 0 -2h-4zM1014 1067l2 4v2l4 -2l-4 -2zM1057 1196l2 2l2 -2h-4zM1116 1133l4 6l4 -21q-7 14 -8 15z" />
<glyph unicode="&#xf4;" d="M205 184q0 11 10 11q-6 30 -6 63q0 133 91.5 254.5t234.5 181.5q87 37 180 37q58 0 141 -22h6q12 0 19 -7l8 -4v2l-2 13q0 14 9 23t26 9q18 0 20 -2l49 375q3 6 10 6t11 -5.5t0 -12.5l-47 -375q20 -11 20 -31q0 -35 -33 -53l39 -43q78 -47 78 -180l-4 -80l-12 -82 q-64 -366 -334 -422q-27 -8 -86 -8q-98 0 -187.5 38t-152.5 107q-79 88 -88 207zM236 127q25 -86 95.5 -155.5t162.5 -98.5q67 -20 135 -20q164 0 270 106q50 50 86 139q-63 -103 -157 -161t-199 -58q-70 0 -147.5 28.5t-141.5 80.5q-68 54 -104 139zM287 260q0 -48 22 -106 l-4 43q0 73 47 155t123 144q74 64 163.5 101.5t168.5 37.5h22q-56 16 -112 16q-106 0 -204 -54t-161 -146q-65 -95 -65 -191zM326 195q0 -53 22 -95l2 -10q44 -57 123 -95t154 -38q69 0 121 27q108 49 173.5 157t65.5 232q0 131 -94 225q-43 16 -88 16q-73 0 -158 -36 t-160 -99q-74 -57 -117.5 -134t-43.5 -150zM471 879q-2 11 23 69q58 117 116 219q25 41 45 56l9 2q-23 14 -27 18l-4 12q0 9 2 11t2 6l10 16q4 12 8 4q7 11 11 11h10l22 -5l19 164l14 2l-16 -172q14 -14 14 -35q0 -17 -9 -23t-36 -11l2 -2h4q20 0 29 -27l6 -25 q10 -19 63 -159l60 -156l-19 -29l-14 -4q-13 0 -27 17l-10 18l-14 33q-24 44 -94 250q0 -6 -8 -19q-80 -134 -154 -248q-4 -7 -12 -10h-4q-14 0 -21 17zM494 922q112 174 135 217l4 16l10 23q15 30 27 39l-4 -3q-2 -2 -7 -2l-16 -16l-25 -35q-66 -110 -114 -219zM657 1251 q7 -7 7 -10q5 5 12 2q26 3 29 6l4 4q0 28 -35 25l-2 -4l-13 -19zM674 1147q6 0 6 -4q21 -76 92 -250l14 -33q11 -23 27 -26q4 0 4 2l-49 116q-6 21 -37 103q-18 41 -22 51q-11 18 -21 47l-4 16v2l-4 -10zM911 702q0 -4 7 -18q16 0 24 -14q11 6 16 17.5t0 17.5q0 2 -4 6v-9 l-4 -6q-4 -4 -6 -2l-4 2q-5 0 -8 3.5t-2 7.5l8 12h-8q-19 0 -19 -17z" />
<glyph unicode="&#xf9;" d="M70 618q0 142 180 322l69 68l54 49l28 28q-19 6 -28.5 19.5t-3.5 30.5q3 11 12 20v2q0 80 -14 244l-5 100q0 99 15 146q3 10 12 10q6 0 9.5 -4.5t2.5 -10.5q-14 -41 -14 -141l4 -98l15 -236q2 2 10 2q12 0 20 -8.5t10 -21.5q3 -3 0 -6q47 44 80 67q17 10 25 10 q13 0 27 -14l8 -6q12 -34 12 -57q0 -25 -11 -45.5t-40 -51.5l-35 -32q-25 -22 -31 -31q-136 -136 -196 -225q-56 -86 -56 -164q0 -83 62 -121q10 -5 8 -12t-10 -7q32 -6 39 -4q72 9 239 185l138 153l98 113q9 12 26 12t27 -10q9 3 12 0q19 -16 19 -41q0 -36 -41 -107 q-62 -101 -174.5 -205t-214.5 -153q-79 -29 -109 -29l-33 4q-46 0 -96.5 25.5t-83.5 63.5q-65 77 -65 167zM150 618q0 -59 47 -118q28 -35 82 -54q-70 43 -70 138q0 84 57.5 174t198.5 231q99 80 113 133q3 10 0 23l-7 -6q-24 -18 -47 -41l-51 -49l-47 -50l-55 -51l-68 -63 q-153 -153 -153 -267zM391 1128q0 -6 4 -10q3 -7 17 -10q13 10 10 29q0 6 -2 6h-2q-8 0 -17 -4.5t-10 -10.5zM430 399l16 7q97 47 210 151t171 199q30 51 35 78q2 2 2 10l-4 -6l-100 -113l-135 -154q-61 -66 -148 -137zM784 1235q0 8 2 10l5 6q5 5 20 31q7 10 36 20t34 5 l10 -2h8l14 -7l9 -4q0 11 2 13t2 6l10 16q5 9 8 4q7 10 10 10h11l22 -4l19 349l14 2l-16 -357q14 -14 14 -35q0 -12 -8.5 -19t-28.5 -13q20 -14 20 -31q0 -14 -22 -27l-6 -6q-27 -12 -27 -24l-2 -4q1 0 3.5 -2.5t2.5 -4.5q2 -5 13 -12l12 -14l20 -6l33 -13q46 -12 82 -12 l37 4q0 -2 2 0q9 9 16 6q6 0 11.5 -4.5t5.5 -11.5q0 -9 -8 -17q-14 -17 -39 -26l-15 -6q-2 -2 -35 -2q-131 0 -231 59q-60 34 -63 78q-10 32 -3 39q-4 4 -4 6zM813 1206q3 6 8 11l-4 6zM877 1280h4l-2 2zM918 1155l6 -4v4l-2 2zM938 1137h4l-4 2q2 -2 0 -2zM946 1292 q6 -6 6 -10q6 6 13 2q25 3 28 6l4 4q0 28 -34 25l-2 -4l-13 -19zM952 1221q7 0 15 8zM1077 1081l8 2h-6zM1120 1087q6 0 2 -4v-2l2 4l11 5z" />
<glyph unicode="&#x2000;" horiz-adv-x="857" />
<glyph unicode="&#x2001;" horiz-adv-x="1714" />
<glyph unicode="&#x2002;" horiz-adv-x="857" />
<glyph unicode="&#x2003;" horiz-adv-x="1714" />
<glyph unicode="&#x2004;" horiz-adv-x="571" />
<glyph unicode="&#x2005;" horiz-adv-x="428" />
<glyph unicode="&#x2006;" horiz-adv-x="285" />
<glyph unicode="&#x2007;" horiz-adv-x="285" />
<glyph unicode="&#x2008;" horiz-adv-x="214" />
<glyph unicode="&#x2009;" horiz-adv-x="342" />
<glyph unicode="&#x200a;" horiz-adv-x="95" />
<glyph unicode="&#x2010;" d="M252 487l4 9l4 2q-2 2 -2 12v4q0 12 11.5 24t25.5 13q120 8 291 59l24 6l15 5q2 2 4 0l4 2q-21 9 -21 28q0 33 39 47v4q0 331 -24 574v2q0 12 12 12t12 -10q25 -256 25 -578v-4q26 -10 26 -39q3 -5 -2 -10l-2 -4q-4 -8 -16 -20l55 18q136 42 193 64l6 4l14 4q15 6 25 6 q17 0 30 -14t13 -33q0 -20 -17 -37l-16 -8l-156 -60l-262 -84q-112 -32 -172 -47l-61 -12q-2 -2 -23 -2l-16 4q-8 2 -25 27l-10 16q-8 8 -8 16zM281 477l6 -12l16 -21h8q17 0 19 2l61 11q81 17 170 49l164 51q52 18 125 39l6 10l-78 -20l-143 -41q-226 -61 -336 -72z M639 651q0 -10 16 -10q8 0 14.5 5.5t6.5 12.5q0 19 -12 19q-8 0 -16.5 -9t-8.5 -16v-2z" />
<glyph unicode="&#x2011;" d="M252 487l4 9l4 2q-2 2 -2 12v4q0 12 11.5 24t25.5 13q120 8 291 59l24 6l15 5q2 2 4 0l4 2q-21 9 -21 28q0 33 39 47v4q0 331 -24 574v2q0 12 12 12t12 -10q25 -256 25 -578v-4q26 -10 26 -39q3 -5 -2 -10l-2 -4q-4 -8 -16 -20l55 18q136 42 193 64l6 4l14 4q15 6 25 6 q17 0 30 -14t13 -33q0 -20 -17 -37l-16 -8l-156 -60l-262 -84q-112 -32 -172 -47l-61 -12q-2 -2 -23 -2l-16 4q-8 2 -25 27l-10 16q-8 8 -8 16zM281 477l6 -12l16 -21h8q17 0 19 2l61 11q81 17 170 49l164 51q52 18 125 39l6 10l-78 -20l-143 -41q-226 -61 -336 -72z M639 651q0 -10 16 -10q8 0 14.5 5.5t6.5 12.5q0 19 -12 19q-8 0 -16.5 -9t-8.5 -16v-2z" />
<glyph unicode="&#x2012;" d="M252 487l4 9l4 2q-2 2 -2 12v4q0 12 11.5 24t25.5 13q120 8 291 59l24 6l15 5q2 2 4 0l4 2q-21 9 -21 28q0 33 39 47v4q0 331 -24 574v2q0 12 12 12t12 -10q25 -256 25 -578v-4q26 -10 26 -39q3 -5 -2 -10l-2 -4q-4 -8 -16 -20l55 18q136 42 193 64l6 4l14 4q15 6 25 6 q17 0 30 -14t13 -33q0 -20 -17 -37l-16 -8l-156 -60l-262 -84q-112 -32 -172 -47l-61 -12q-2 -2 -23 -2l-16 4q-8 2 -25 27l-10 16q-8 8 -8 16zM281 477l6 -12l16 -21h8q17 0 19 2l61 11q81 17 170 49l164 51q52 18 125 39l6 10l-78 -20l-143 -41q-226 -61 -336 -72z M639 651q0 -10 16 -10q8 0 14.5 5.5t6.5 12.5q0 19 -12 19q-8 0 -16.5 -9t-8.5 -16v-2z" />
<glyph unicode="&#x2013;" horiz-adv-x="1486" d="M252 487l5 9l6 2q-3 2 -3 12v4q0 12 15.5 24t33.5 13q161 8 389 59l33 6l20 5q2 2 5 0l5 2q-28 9 -28 28q0 33 52 47v4q0 331 -32 574v2q0 12 16 12t16 -10q34 -256 34 -578v-4q35 -10 35 -39q4 -5 -3 -10l-3 -4q-5 -8 -21 -20l73 18q182 42 258 64l8 4l19 4q20 6 34 6 q22 0 39.5 -14t17.5 -33q0 -20 -23 -37l-21 -8l-209 -60l-350 -84q-150 -32 -230 -47l-81 -12q-3 -2 -31 -2l-22 4q-10 2 -33 27l-13 16q-11 8 -11 16zM291 477l8 -12l21 -21h11q23 0 25 2l82 11q108 17 227 49l219 51q70 18 167 39l8 10l-104 -20l-191 -41 q-302 -61 -449 -72zM769 651q0 -10 22 -10q10 0 19 5.5t9 12.5q0 19 -16 19q-11 0 -22.5 -9t-11.5 -16v-2z" />
<glyph unicode="&#x2014;" horiz-adv-x="2510" d="M252 487l11 9l10 2q-5 2 -5 12v4q0 12 31 24t68 13q321 8 778 59l64 6l40 5q6 2 11 0l11 2q-56 9 -56 28q0 33 104 47v4q0 331 -64 574v2q0 12 32 12t32 -10q67 -256 67 -578v-4q69 -10 69 -39q8 -5 -5 -10l-6 -4q-10 -8 -42 -20l147 18q363 42 516 64l16 4l37 4 q40 6 67 6q45 0 80 -14t35 -33q0 -20 -45 -37l-43 -8l-417 -60l-701 -84q-299 -32 -460 -47l-163 -12q-5 -2 -61 -2l-43 4q-21 2 -67 27l-27 16q-21 8 -21 16zM330 477l16 -12l42 -21h22q45 0 51 2l163 11q216 17 454 49l439 51q139 18 334 39l16 10l-209 -20l-382 -41 q-604 -61 -898 -72zM1287 651q0 -10 42 -10q22 0 39.5 5.5t17.5 12.5q0 19 -32 19q-22 0 -44.5 -9t-22.5 -16v-2z" />
<glyph unicode="&#x202f;" horiz-adv-x="342" />
<glyph unicode="&#x205f;" horiz-adv-x="428" />
<glyph unicode="&#x25fc;" horiz-adv-x="1648" d="M0 0v1649h1649v-1649h-1649z" />
</font>
</defs>
</svg>
