<svg version="1.1" xmlns="http://www.w3.org/2000/svg" xmlns:xlink="http://www.w3.org/1999/xlink" x="0px" y="0px" viewBox="0 0 48 48" xml:space="preserve" width="48" height="48"><g class="nc-icon-wrapper"><path fill="#43A6DD" d="M6,25H2c-0.55225,0-1-0.44727-1-1s0.44775-1,1-1h4c0.55225,0,1,0.44727,1,1S6.55225,25,6,25z"></path> <path fill="#43A6DD" d="M11.27197,12.27246c-0.25586,0-0.51172-0.09766-0.70703-0.29297l-2.82812-2.8291 c-0.39062-0.39062-0.39062-1.02344,0-1.41406s1.02344-0.39062,1.41406,0l2.82812,2.8291c0.39062,0.39062,0.39062,1.02344,0,1.41406 C11.78369,12.1748,11.52783,12.27246,11.27197,12.27246z"></path> <path fill="#43A6DD" d="M24,7c-0.55225,0-1-0.44727-1-1V2c0-0.55273,0.44775-1,1-1s1,0.44727,1,1v4C25,6.55273,24.55225,7,24,7z"></path> <path fill="#43A6DD" d="M36.72803,12.27246c-0.25586,0-0.51172-0.09766-0.70703-0.29297c-0.39062-0.39062-0.39062-1.02344,0-1.41406 l2.82812-2.8291c0.38965-0.39062,1.02344-0.39062,1.41406,0s0.39062,1.02344,0,1.41406l-2.82812,2.8291 C37.24023,12.1748,36.98389,12.27246,36.72803,12.27246z"></path> <path fill="#43A6DD" d="M46,25h-4c-0.55225,0-1-0.44727-1-1s0.44775-1,1-1h4c0.55225,0,1,0.44727,1,1S46.55225,25,46,25z"></path> <path fill="#EFD358" d="M29,41H19v-5.01172c-5.33776-2.22651-8.67485-7.80107-7.88457-13.71942 c0.85052-6.36943,6.45305-11.26616,12.87902-11.26886C31.16545,10.997,37,16.83019,37,24c0,5.25-3.18652,9.98047-8,11.98828V41z"></path> <path fill="#E6E6E6" d="M24.00001,47h-0.00001C21.23857,47,19,44.76143,19,42v-3h10v3C29,44.76143,26.76143,47,24.00001,47z"></path> <rect x="19" y="39" fill="#B3B3B3" width="10" height="2"></rect></g></svg>